<?xml version="1.0" encoding="utf-8" standalone="no"?>
<!DOCTYPE svg PUBLIC "-//W3C//DTD SVG 1.1//EN"
  "http://www.w3.org/Graphics/SVG/1.1/DTD/svg11.dtd">
<svg xmlns:xlink="http://www.w3.org/1999/xlink" width="1152pt" height="432pt" viewBox="0 0 1152 432" xmlns="http://www.w3.org/2000/svg" version="1.1">
 <metadata>
  <rdf:RDF xmlns:dc="http://purl.org/dc/elements/1.1/" xmlns:cc="http://creativecommons.org/ns#" xmlns:rdf="http://www.w3.org/1999/02/22-rdf-syntax-ns#">
   <cc:Work>
    <dc:type rdf:resource="http://purl.org/dc/dcmitype/StillImage"/>
    <dc:date>2026-04-17T07:16:07.736333</dc:date>
    <dc:format>image/svg+xml</dc:format>
    <dc:creator>
     <cc:Agent>
      <dc:title>Matplotlib v3.10.3, https://matplotlib.org/</dc:title>
     </cc:Agent>
    </dc:creator>
   </cc:Work>
  </rdf:RDF>
 </metadata>
 <defs>
  <style type="text/css">*{stroke-linejoin: round; stroke-linecap: butt}</style>
 </defs>
 <g id="figure_1">
  <g id="patch_1">
   <path d="M 0 432 
L 1152 432 
L 1152 0 
L 0 0 
z
" style="fill: #ffffff"/>
  </g>
  <g id="axes_1">
   <g id="patch_2">
    <path d="M 50.87 390.04 
L 1141.2 390.04 
L 1141.2 11.648409 
L 50.87 11.648409 
z
" style="fill: #ffffff"/>
   </g>
   <g id="matplotlib.axis_1">
    <g id="xtick_1">
     <g id="line2d_1">
      <path d="M 100.430455 390.04 
L 100.430455 11.648409 
" clip-path="url(#p0aaa8afe3a)" style="fill: none; stroke: #b0b0b0; stroke-width: 0.8; stroke-linecap: square"/>
     </g>
     <g id="line2d_2">
      <defs>
       <path id="m94593edbd5" d="M 0 0 
L 0 3.5 
" style="stroke: #000000; stroke-width: 0.8"/>
      </defs>
      <g>
       <use xlink:href="#m94593edbd5" x="100.430455" y="390.04" style="stroke: #000000; stroke-width: 0.8"/>
      </g>
     </g>
     <g id="text_1">
      <!-- 0 -->
      <g transform="translate(97.249205 404.638438) scale(0.1 -0.1)">
       <defs>
        <path id="DejaVuSans-30" d="M 2034 4250 
Q 1547 4250 1301 3770 
Q 1056 3291 1056 2328 
Q 1056 1369 1301 889 
Q 1547 409 2034 409 
Q 2525 409 2770 889 
Q 3016 1369 3016 2328 
Q 3016 3291 2770 3770 
Q 2525 4250 2034 4250 
z
M 2034 4750 
Q 2819 4750 3233 4129 
Q 3647 3509 3647 2328 
Q 3647 1150 3233 529 
Q 2819 -91 2034 -91 
Q 1250 -91 836 529 
Q 422 1150 422 2328 
Q 422 3509 836 4129 
Q 1250 4750 2034 4750 
z
" transform="scale(0.015625)"/>
       </defs>
       <use xlink:href="#DejaVuSans-30"/>
      </g>
     </g>
    </g>
    <g id="xtick_2">
     <g id="line2d_3">
      <path d="M 282.470692 390.04 
L 282.470692 11.648409 
" clip-path="url(#p0aaa8afe3a)" style="fill: none; stroke: #b0b0b0; stroke-width: 0.8; stroke-linecap: square"/>
     </g>
     <g id="line2d_4">
      <g>
       <use xlink:href="#m94593edbd5" x="282.470692" y="390.04" style="stroke: #000000; stroke-width: 0.8"/>
      </g>
     </g>
     <g id="text_2">
      <!-- 2 -->
      <g transform="translate(279.289442 404.638438) scale(0.1 -0.1)">
       <defs>
        <path id="DejaVuSans-32" d="M 1228 531 
L 3431 531 
L 3431 0 
L 469 0 
L 469 531 
Q 828 903 1448 1529 
Q 2069 2156 2228 2338 
Q 2531 2678 2651 2914 
Q 2772 3150 2772 3378 
Q 2772 3750 2511 3984 
Q 2250 4219 1831 4219 
Q 1534 4219 1204 4116 
Q 875 4013 500 3803 
L 500 4441 
Q 881 4594 1212 4672 
Q 1544 4750 1819 4750 
Q 2544 4750 2975 4387 
Q 3406 4025 3406 3419 
Q 3406 3131 3298 2873 
Q 3191 2616 2906 2266 
Q 2828 2175 2409 1742 
Q 1991 1309 1228 531 
z
" transform="scale(0.015625)"/>
       </defs>
       <use xlink:href="#DejaVuSans-32"/>
      </g>
     </g>
    </g>
    <g id="xtick_3">
     <g id="line2d_5">
      <path d="M 464.510929 390.04 
L 464.510929 11.648409 
" clip-path="url(#p0aaa8afe3a)" style="fill: none; stroke: #b0b0b0; stroke-width: 0.8; stroke-linecap: square"/>
     </g>
     <g id="line2d_6">
      <g>
       <use xlink:href="#m94593edbd5" x="464.510929" y="390.04" style="stroke: #000000; stroke-width: 0.8"/>
      </g>
     </g>
     <g id="text_3">
      <!-- 4 -->
      <g transform="translate(461.329679 404.638438) scale(0.1 -0.1)">
       <defs>
        <path id="DejaVuSans-34" d="M 2419 4116 
L 825 1625 
L 2419 1625 
L 2419 4116 
z
M 2253 4666 
L 3047 4666 
L 3047 1625 
L 3713 1625 
L 3713 1100 
L 3047 1100 
L 3047 0 
L 2419 0 
L 2419 1100 
L 313 1100 
L 313 1709 
L 2253 4666 
z
" transform="scale(0.015625)"/>
       </defs>
       <use xlink:href="#DejaVuSans-34"/>
      </g>
     </g>
    </g>
    <g id="xtick_4">
     <g id="line2d_7">
      <path d="M 646.551166 390.04 
L 646.551166 11.648409 
" clip-path="url(#p0aaa8afe3a)" style="fill: none; stroke: #b0b0b0; stroke-width: 0.8; stroke-linecap: square"/>
     </g>
     <g id="line2d_8">
      <g>
       <use xlink:href="#m94593edbd5" x="646.551166" y="390.04" style="stroke: #000000; stroke-width: 0.8"/>
      </g>
     </g>
     <g id="text_4">
      <!-- 6 -->
      <g transform="translate(643.369916 404.638438) scale(0.1 -0.1)">
       <defs>
        <path id="DejaVuSans-36" d="M 2113 2584 
Q 1688 2584 1439 2293 
Q 1191 2003 1191 1497 
Q 1191 994 1439 701 
Q 1688 409 2113 409 
Q 2538 409 2786 701 
Q 3034 994 3034 1497 
Q 3034 2003 2786 2293 
Q 2538 2584 2113 2584 
z
M 3366 4563 
L 3366 3988 
Q 3128 4100 2886 4159 
Q 2644 4219 2406 4219 
Q 1781 4219 1451 3797 
Q 1122 3375 1075 2522 
Q 1259 2794 1537 2939 
Q 1816 3084 2150 3084 
Q 2853 3084 3261 2657 
Q 3669 2231 3669 1497 
Q 3669 778 3244 343 
Q 2819 -91 2113 -91 
Q 1303 -91 875 529 
Q 447 1150 447 2328 
Q 447 3434 972 4092 
Q 1497 4750 2381 4750 
Q 2619 4750 2861 4703 
Q 3103 4656 3366 4563 
z
" transform="scale(0.015625)"/>
       </defs>
       <use xlink:href="#DejaVuSans-36"/>
      </g>
     </g>
    </g>
    <g id="xtick_5">
     <g id="line2d_9">
      <path d="M 828.591403 390.04 
L 828.591403 11.648409 
" clip-path="url(#p0aaa8afe3a)" style="fill: none; stroke: #b0b0b0; stroke-width: 0.8; stroke-linecap: square"/>
     </g>
     <g id="line2d_10">
      <g>
       <use xlink:href="#m94593edbd5" x="828.591403" y="390.04" style="stroke: #000000; stroke-width: 0.8"/>
      </g>
     </g>
     <g id="text_5">
      <!-- 8 -->
      <g transform="translate(825.410153 404.638438) scale(0.1 -0.1)">
       <defs>
        <path id="DejaVuSans-38" d="M 2034 2216 
Q 1584 2216 1326 1975 
Q 1069 1734 1069 1313 
Q 1069 891 1326 650 
Q 1584 409 2034 409 
Q 2484 409 2743 651 
Q 3003 894 3003 1313 
Q 3003 1734 2745 1975 
Q 2488 2216 2034 2216 
z
M 1403 2484 
Q 997 2584 770 2862 
Q 544 3141 544 3541 
Q 544 4100 942 4425 
Q 1341 4750 2034 4750 
Q 2731 4750 3128 4425 
Q 3525 4100 3525 3541 
Q 3525 3141 3298 2862 
Q 3072 2584 2669 2484 
Q 3125 2378 3379 2068 
Q 3634 1759 3634 1313 
Q 3634 634 3220 271 
Q 2806 -91 2034 -91 
Q 1263 -91 848 271 
Q 434 634 434 1313 
Q 434 1759 690 2068 
Q 947 2378 1403 2484 
z
M 1172 3481 
Q 1172 3119 1398 2916 
Q 1625 2713 2034 2713 
Q 2441 2713 2670 2916 
Q 2900 3119 2900 3481 
Q 2900 3844 2670 4047 
Q 2441 4250 2034 4250 
Q 1625 4250 1398 4047 
Q 1172 3844 1172 3481 
z
" transform="scale(0.015625)"/>
       </defs>
       <use xlink:href="#DejaVuSans-38"/>
      </g>
     </g>
    </g>
    <g id="xtick_6">
     <g id="line2d_11">
      <path d="M 1010.63164 390.04 
L 1010.63164 11.648409 
" clip-path="url(#p0aaa8afe3a)" style="fill: none; stroke: #b0b0b0; stroke-width: 0.8; stroke-linecap: square"/>
     </g>
     <g id="line2d_12">
      <g>
       <use xlink:href="#m94593edbd5" x="1010.63164" y="390.04" style="stroke: #000000; stroke-width: 0.8"/>
      </g>
     </g>
     <g id="text_6">
      <!-- 10 -->
      <g transform="translate(1004.26914 404.638438) scale(0.1 -0.1)">
       <defs>
        <path id="DejaVuSans-31" d="M 794 531 
L 1825 531 
L 1825 4091 
L 703 3866 
L 703 4441 
L 1819 4666 
L 2450 4666 
L 2450 531 
L 3481 531 
L 3481 0 
L 794 0 
L 794 531 
z
" transform="scale(0.015625)"/>
       </defs>
       <use xlink:href="#DejaVuSans-31"/>
       <use xlink:href="#DejaVuSans-30" transform="translate(63.623047 0)"/>
      </g>
     </g>
    </g>
    <g id="text_7">
     <!-- time (s) -->
     <g transform="translate(576.643594 418.316562) scale(0.1 -0.1)">
      <defs>
       <path id="DejaVuSans-74" d="M 1172 4494 
L 1172 3500 
L 2356 3500 
L 2356 3053 
L 1172 3053 
L 1172 1153 
Q 1172 725 1289 603 
Q 1406 481 1766 481 
L 2356 481 
L 2356 0 
L 1766 0 
Q 1100 0 847 248 
Q 594 497 594 1153 
L 594 3053 
L 172 3053 
L 172 3500 
L 594 3500 
L 594 4494 
L 1172 4494 
z
" transform="scale(0.015625)"/>
       <path id="DejaVuSans-69" d="M 603 3500 
L 1178 3500 
L 1178 0 
L 603 0 
L 603 3500 
z
M 603 4863 
L 1178 4863 
L 1178 4134 
L 603 4134 
L 603 4863 
z
" transform="scale(0.015625)"/>
       <path id="DejaVuSans-6d" d="M 3328 2828 
Q 3544 3216 3844 3400 
Q 4144 3584 4550 3584 
Q 5097 3584 5394 3201 
Q 5691 2819 5691 2113 
L 5691 0 
L 5113 0 
L 5113 2094 
Q 5113 2597 4934 2840 
Q 4756 3084 4391 3084 
Q 3944 3084 3684 2787 
Q 3425 2491 3425 1978 
L 3425 0 
L 2847 0 
L 2847 2094 
Q 2847 2600 2669 2842 
Q 2491 3084 2119 3084 
Q 1678 3084 1418 2786 
Q 1159 2488 1159 1978 
L 1159 0 
L 581 0 
L 581 3500 
L 1159 3500 
L 1159 2956 
Q 1356 3278 1631 3431 
Q 1906 3584 2284 3584 
Q 2666 3584 2933 3390 
Q 3200 3197 3328 2828 
z
" transform="scale(0.015625)"/>
       <path id="DejaVuSans-65" d="M 3597 1894 
L 3597 1613 
L 953 1613 
Q 991 1019 1311 708 
Q 1631 397 2203 397 
Q 2534 397 2845 478 
Q 3156 559 3463 722 
L 3463 178 
Q 3153 47 2828 -22 
Q 2503 -91 2169 -91 
Q 1331 -91 842 396 
Q 353 884 353 1716 
Q 353 2575 817 3079 
Q 1281 3584 2069 3584 
Q 2775 3584 3186 3129 
Q 3597 2675 3597 1894 
z
M 3022 2063 
Q 3016 2534 2758 2815 
Q 2500 3097 2075 3097 
Q 1594 3097 1305 2825 
Q 1016 2553 972 2059 
L 3022 2063 
z
" transform="scale(0.015625)"/>
       <path id="DejaVuSans-20" transform="scale(0.015625)"/>
       <path id="DejaVuSans-28" d="M 1984 4856 
Q 1566 4138 1362 3434 
Q 1159 2731 1159 2009 
Q 1159 1288 1364 580 
Q 1569 -128 1984 -844 
L 1484 -844 
Q 1016 -109 783 600 
Q 550 1309 550 2009 
Q 550 2706 781 3412 
Q 1013 4119 1484 4856 
L 1984 4856 
z
" transform="scale(0.015625)"/>
       <path id="DejaVuSans-73" d="M 2834 3397 
L 2834 2853 
Q 2591 2978 2328 3040 
Q 2066 3103 1784 3103 
Q 1356 3103 1142 2972 
Q 928 2841 928 2578 
Q 928 2378 1081 2264 
Q 1234 2150 1697 2047 
L 1894 2003 
Q 2506 1872 2764 1633 
Q 3022 1394 3022 966 
Q 3022 478 2636 193 
Q 2250 -91 1575 -91 
Q 1294 -91 989 -36 
Q 684 19 347 128 
L 347 722 
Q 666 556 975 473 
Q 1284 391 1588 391 
Q 1994 391 2212 530 
Q 2431 669 2431 922 
Q 2431 1156 2273 1281 
Q 2116 1406 1581 1522 
L 1381 1569 
Q 847 1681 609 1914 
Q 372 2147 372 2553 
Q 372 3047 722 3315 
Q 1072 3584 1716 3584 
Q 2034 3584 2315 3537 
Q 2597 3491 2834 3397 
z
" transform="scale(0.015625)"/>
       <path id="DejaVuSans-29" d="M 513 4856 
L 1013 4856 
Q 1481 4119 1714 3412 
Q 1947 2706 1947 2009 
Q 1947 1309 1714 600 
Q 1481 -109 1013 -844 
L 513 -844 
Q 928 -128 1133 580 
Q 1338 1288 1338 2009 
Q 1338 2731 1133 3434 
Q 928 4138 513 4856 
z
" transform="scale(0.015625)"/>
      </defs>
      <use xlink:href="#DejaVuSans-74"/>
      <use xlink:href="#DejaVuSans-69" transform="translate(39.208984 0)"/>
      <use xlink:href="#DejaVuSans-6d" transform="translate(66.992188 0)"/>
      <use xlink:href="#DejaVuSans-65" transform="translate(164.404297 0)"/>
      <use xlink:href="#DejaVuSans-20" transform="translate(225.927734 0)"/>
      <use xlink:href="#DejaVuSans-28" transform="translate(257.714844 0)"/>
      <use xlink:href="#DejaVuSans-73" transform="translate(296.728516 0)"/>
      <use xlink:href="#DejaVuSans-29" transform="translate(348.828125 0)"/>
     </g>
    </g>
   </g>
   <g id="matplotlib.axis_2">
    <g id="ytick_1">
     <g id="line2d_13">
      <path d="M 50.87 372.840382 
L 1141.2 372.840382 
" clip-path="url(#p0aaa8afe3a)" style="fill: none; stroke: #b0b0b0; stroke-width: 0.8; stroke-linecap: square"/>
     </g>
     <g id="line2d_14">
      <defs>
       <path id="ma32e20ed69" d="M 0 0 
L -3.5 0 
" style="stroke: #000000; stroke-width: 0.8"/>
      </defs>
      <g>
       <use xlink:href="#ma32e20ed69" x="50.87" y="372.840382" style="stroke: #000000; stroke-width: 0.8"/>
      </g>
     </g>
     <g id="text_8">
      <!-- 0 -->
      <g transform="translate(37.5075 376.639601) scale(0.1 -0.1)">
       <use xlink:href="#DejaVuSans-30"/>
      </g>
     </g>
    </g>
    <g id="ytick_2">
     <g id="line2d_15">
      <path d="M 50.87 301.3099 
L 1141.2 301.3099 
" clip-path="url(#p0aaa8afe3a)" style="fill: none; stroke: #b0b0b0; stroke-width: 0.8; stroke-linecap: square"/>
     </g>
     <g id="line2d_16">
      <g>
       <use xlink:href="#ma32e20ed69" x="50.87" y="301.3099" style="stroke: #000000; stroke-width: 0.8"/>
      </g>
     </g>
     <g id="text_9">
      <!-- 20 -->
      <g transform="translate(31.145 305.109119) scale(0.1 -0.1)">
       <use xlink:href="#DejaVuSans-32"/>
       <use xlink:href="#DejaVuSans-30" transform="translate(63.623047 0)"/>
      </g>
     </g>
    </g>
    <g id="ytick_3">
     <g id="line2d_17">
      <path d="M 50.87 229.779418 
L 1141.2 229.779418 
" clip-path="url(#p0aaa8afe3a)" style="fill: none; stroke: #b0b0b0; stroke-width: 0.8; stroke-linecap: square"/>
     </g>
     <g id="line2d_18">
      <g>
       <use xlink:href="#ma32e20ed69" x="50.87" y="229.779418" style="stroke: #000000; stroke-width: 0.8"/>
      </g>
     </g>
     <g id="text_10">
      <!-- 40 -->
      <g transform="translate(31.145 233.578636) scale(0.1 -0.1)">
       <use xlink:href="#DejaVuSans-34"/>
       <use xlink:href="#DejaVuSans-30" transform="translate(63.623047 0)"/>
      </g>
     </g>
    </g>
    <g id="ytick_4">
     <g id="line2d_19">
      <path d="M 50.87 158.248935 
L 1141.2 158.248935 
" clip-path="url(#p0aaa8afe3a)" style="fill: none; stroke: #b0b0b0; stroke-width: 0.8; stroke-linecap: square"/>
     </g>
     <g id="line2d_20">
      <g>
       <use xlink:href="#ma32e20ed69" x="50.87" y="158.248935" style="stroke: #000000; stroke-width: 0.8"/>
      </g>
     </g>
     <g id="text_11">
      <!-- 60 -->
      <g transform="translate(31.145 162.048154) scale(0.1 -0.1)">
       <use xlink:href="#DejaVuSans-36"/>
       <use xlink:href="#DejaVuSans-30" transform="translate(63.623047 0)"/>
      </g>
     </g>
    </g>
    <g id="ytick_5">
     <g id="line2d_21">
      <path d="M 50.87 86.718453 
L 1141.2 86.718453 
" clip-path="url(#p0aaa8afe3a)" style="fill: none; stroke: #b0b0b0; stroke-width: 0.8; stroke-linecap: square"/>
     </g>
     <g id="line2d_22">
      <g>
       <use xlink:href="#ma32e20ed69" x="50.87" y="86.718453" style="stroke: #000000; stroke-width: 0.8"/>
      </g>
     </g>
     <g id="text_12">
      <!-- 80 -->
      <g transform="translate(31.145 90.517672) scale(0.1 -0.1)">
       <use xlink:href="#DejaVuSans-38"/>
       <use xlink:href="#DejaVuSans-30" transform="translate(63.623047 0)"/>
      </g>
     </g>
    </g>
    <g id="ytick_6">
     <g id="line2d_23">
      <path d="M 50.87 15.187971 
L 1141.2 15.187971 
" clip-path="url(#p0aaa8afe3a)" style="fill: none; stroke: #b0b0b0; stroke-width: 0.8; stroke-linecap: square"/>
     </g>
     <g id="line2d_24">
      <g>
       <use xlink:href="#ma32e20ed69" x="50.87" y="15.187971" style="stroke: #000000; stroke-width: 0.8"/>
      </g>
     </g>
     <g id="text_13">
      <!-- 100 -->
      <g transform="translate(24.7825 18.98719) scale(0.1 -0.1)">
       <use xlink:href="#DejaVuSans-31"/>
       <use xlink:href="#DejaVuSans-30" transform="translate(63.623047 0)"/>
       <use xlink:href="#DejaVuSans-30" transform="translate(127.246094 0)"/>
      </g>
     </g>
    </g>
    <g id="text_14">
     <!-- rate (Mbps) -->
     <g transform="translate(18.702812 229.758267) rotate(-90) scale(0.1 -0.1)">
      <defs>
       <path id="DejaVuSans-72" d="M 2631 2963 
Q 2534 3019 2420 3045 
Q 2306 3072 2169 3072 
Q 1681 3072 1420 2755 
Q 1159 2438 1159 1844 
L 1159 0 
L 581 0 
L 581 3500 
L 1159 3500 
L 1159 2956 
Q 1341 3275 1631 3429 
Q 1922 3584 2338 3584 
Q 2397 3584 2469 3576 
Q 2541 3569 2628 3553 
L 2631 2963 
z
" transform="scale(0.015625)"/>
       <path id="DejaVuSans-61" d="M 2194 1759 
Q 1497 1759 1228 1600 
Q 959 1441 959 1056 
Q 959 750 1161 570 
Q 1363 391 1709 391 
Q 2188 391 2477 730 
Q 2766 1069 2766 1631 
L 2766 1759 
L 2194 1759 
z
M 3341 1997 
L 3341 0 
L 2766 0 
L 2766 531 
Q 2569 213 2275 61 
Q 1981 -91 1556 -91 
Q 1019 -91 701 211 
Q 384 513 384 1019 
Q 384 1609 779 1909 
Q 1175 2209 1959 2209 
L 2766 2209 
L 2766 2266 
Q 2766 2663 2505 2880 
Q 2244 3097 1772 3097 
Q 1472 3097 1187 3025 
Q 903 2953 641 2809 
L 641 3341 
Q 956 3463 1253 3523 
Q 1550 3584 1831 3584 
Q 2591 3584 2966 3190 
Q 3341 2797 3341 1997 
z
" transform="scale(0.015625)"/>
       <path id="DejaVuSans-4d" d="M 628 4666 
L 1569 4666 
L 2759 1491 
L 3956 4666 
L 4897 4666 
L 4897 0 
L 4281 0 
L 4281 4097 
L 3078 897 
L 2444 897 
L 1241 4097 
L 1241 0 
L 628 0 
L 628 4666 
z
" transform="scale(0.015625)"/>
       <path id="DejaVuSans-62" d="M 3116 1747 
Q 3116 2381 2855 2742 
Q 2594 3103 2138 3103 
Q 1681 3103 1420 2742 
Q 1159 2381 1159 1747 
Q 1159 1113 1420 752 
Q 1681 391 2138 391 
Q 2594 391 2855 752 
Q 3116 1113 3116 1747 
z
M 1159 2969 
Q 1341 3281 1617 3432 
Q 1894 3584 2278 3584 
Q 2916 3584 3314 3078 
Q 3713 2572 3713 1747 
Q 3713 922 3314 415 
Q 2916 -91 2278 -91 
Q 1894 -91 1617 61 
Q 1341 213 1159 525 
L 1159 0 
L 581 0 
L 581 4863 
L 1159 4863 
L 1159 2969 
z
" transform="scale(0.015625)"/>
       <path id="DejaVuSans-70" d="M 1159 525 
L 1159 -1331 
L 581 -1331 
L 581 3500 
L 1159 3500 
L 1159 2969 
Q 1341 3281 1617 3432 
Q 1894 3584 2278 3584 
Q 2916 3584 3314 3078 
Q 3713 2572 3713 1747 
Q 3713 922 3314 415 
Q 2916 -91 2278 -91 
Q 1894 -91 1617 61 
Q 1341 213 1159 525 
z
M 3116 1747 
Q 3116 2381 2855 2742 
Q 2594 3103 2138 3103 
Q 1681 3103 1420 2742 
Q 1159 2381 1159 1747 
Q 1159 1113 1420 752 
Q 1681 391 2138 391 
Q 2594 391 2855 752 
Q 3116 1113 3116 1747 
z
" transform="scale(0.015625)"/>
      </defs>
      <use xlink:href="#DejaVuSans-72"/>
      <use xlink:href="#DejaVuSans-61" transform="translate(41.113281 0)"/>
      <use xlink:href="#DejaVuSans-74" transform="translate(102.392578 0)"/>
      <use xlink:href="#DejaVuSans-65" transform="translate(141.601562 0)"/>
      <use xlink:href="#DejaVuSans-20" transform="translate(203.125 0)"/>
      <use xlink:href="#DejaVuSans-28" transform="translate(234.912109 0)"/>
      <use xlink:href="#DejaVuSans-4d" transform="translate(273.925781 0)"/>
      <use xlink:href="#DejaVuSans-62" transform="translate(360.205078 0)"/>
      <use xlink:href="#DejaVuSans-70" transform="translate(423.681641 0)"/>
      <use xlink:href="#DejaVuSans-73" transform="translate(487.158203 0)"/>
      <use xlink:href="#DejaVuSans-29" transform="translate(539.257812 0)"/>
     </g>
    </g>
   </g>
   <g id="line2d_25">
    <path d="M 100.430455 372.840382 
L 101.340656 372.840382 
L 102.250857 247.863056 
L 103.161058 34.192144 
L 104.071259 33.301458 
L 104.98146 34.051509 
L 105.891662 34.004631 
L 106.801863 33.817118 
L 107.712064 33.957753 
L 109.532466 35.410977 
L 110.442668 33.817118 
L 111.352869 33.442092 
L 112.26307 33.301458 
L 113.173271 33.301458 
L 114.083472 33.535849 
L 115.903875 33.160823 
L 116.814076 33.301458 
L 117.724277 32.270137 
L 118.634478 34.660926 
L 119.544679 33.442092 
L 120.454881 33.348336 
L 121.365082 32.785797 
L 122.275283 33.207701 
L 127.73649 33.207701 
L 128.646691 33.348336 
L 129.556892 33.207701 
L 132.287496 33.301458 
L 133.197697 33.020188 
L 134.107898 34.707804 
L 135.0181 33.348336 
L 136.838502 33.160823 
L 137.748703 33.817118 
L 138.658904 32.692041 
L 139.569106 33.207701 
L 140.479307 33.301458 
L 143.20991 33.254579 
L 144.120111 32.97331 
L 145.030313 28.848027 
L 145.940514 37.801766 
L 146.850715 33.067066 
L 147.760916 34.473413 
L 148.671117 33.676483 
L 149.581319 35.035952 
L 150.49152 33.957753 
L 151.401721 33.48897 
L 152.311922 34.848439 
L 153.222123 33.207701 
L 154.132324 34.2859 
L 155.042526 34.520291 
L 155.952727 33.77024 
L 156.862928 34.192144 
L 157.773129 34.051509 
L 158.68333 34.473413 
L 159.593532 33.910874 
L 160.503733 33.957753 
L 161.413934 36.254785 
L 162.324135 33.629605 
L 163.234336 33.301458 
L 164.144538 33.817118 
L 165.054739 33.535849 
L 165.96494 33.48897 
L 166.875141 30.207495 
L 167.785342 36.442298 
L 168.695543 33.48897 
L 169.605745 35.317221 
L 170.515946 33.817118 
L 171.426147 33.395214 
L 172.336348 33.207701 
L 174.156751 33.301458 
L 175.066952 33.207701 
L 176.887354 33.301458 
L 179.617958 33.254579 
L 181.43836 33.910874 
L 182.348561 33.48897 
L 183.258762 33.254579 
L 184.168964 33.817118 
L 185.079165 33.301458 
L 185.989366 33.957753 
L 186.899567 33.301458 
L 187.809768 29.832469 
L 188.71997 33.629605 
L 189.630171 34.614048 
L 190.540372 33.48897 
L 191.450573 33.817118 
L 192.360774 34.2859 
L 193.270975 92.227376 
L 194.181177 202.906846 
L 195.091378 204.031923 
L 196.001579 204.172558 
L 196.91178 203.141237 
L 197.821981 203.469385 
L 199.642384 202.766211 
L 201.462786 203.516263 
L 202.372987 203.32875 
L 203.283188 203.656898 
L 204.19339 203.141237 
L 205.103591 204.360071 
L 206.013792 202.438064 
L 206.923993 205.297635 
L 207.834194 201.641134 
L 209.654597 205.063244 
L 210.564798 204.453827 
L 211.474999 203.188115 
L 212.3852 203.375628 
L 213.295402 203.422506 
L 214.205603 203.797532 
L 215.115804 203.422506 
L 216.026005 203.281872 
L 216.936206 202.484942 
L 217.846407 202.906846 
L 218.756609 203.516263 
L 219.66681 203.32875 
L 223.307615 203.469385 
L 224.217816 203.281872 
L 225.128017 204.172558 
L 226.038218 203.985045 
L 226.948419 203.234994 
L 227.858621 203.094359 
L 228.768822 203.375628 
L 229.679023 202.484942 
L 230.589224 203.656898 
L 231.499425 203.516263 
L 232.409626 204.12568 
L 233.319828 203.234994 
L 235.14023 203.094359 
L 242.421839 203.141237 
L 243.332041 202.953724 
L 244.242242 203.703776 
L 245.152443 203.047481 
L 247.883047 203.094359 
L 255.164656 203.047481 
L 256.985058 203.422506 
L 257.89526 203.047481 
L 258.805461 203.375628 
L 259.715662 203.375628 
L 260.625863 201.406743 
L 261.536064 204.219436 
L 263.356467 203.32875 
L 265.176869 203.188115 
L 266.08707 203.281872 
L 266.997271 203.094359 
L 267.907473 203.469385 
L 268.817674 202.859968 
L 269.727875 203.32875 
L 270.638076 203.516263 
L 271.548277 203.375628 
L 272.458479 204.922609 
L 273.36868 203.375628 
L 274.278881 203.32875 
L 275.189082 203.422506 
L 277.009485 203.234994 
L 277.919686 203.750654 
L 278.829887 203.234994 
L 279.740088 203.750654 
L 280.650289 203.422506 
L 281.56049 203.422506 
L 282.470692 203.563141 
L 283.380893 208.297841 
L 284.291094 250.628871 
L 285.201295 259.817001 
L 286.111496 260.613931 
L 287.021698 259.160706 
L 287.931899 260.613931 
L 288.8421 260.098271 
L 289.752301 259.910758 
L 290.662502 259.86388 
L 291.572703 259.629489 
L 292.482905 259.817001 
L 293.393106 259.58261 
L 294.303307 258.973193 
L 295.213508 260.051392 
L 296.123709 259.817001 
L 297.033911 260.145149 
L 297.944112 259.910758 
L 298.854313 260.004514 
L 299.764514 259.817001 
L 300.674715 260.004514 
L 301.584917 259.910758 
L 302.495118 260.285784 
L 303.405319 259.629489 
L 304.31552 260.098271 
L 305.225721 259.770123 
L 306.135922 260.004514 
L 307.046124 259.770123 
L 307.956325 260.051392 
L 308.866526 260.051392 
L 309.776727 259.770123 
L 311.59713 260.192027 
L 312.507331 259.817001 
L 314.327733 260.004514 
L 315.237934 259.957636 
L 316.148135 259.770123 
L 317.058337 260.051392 
L 318.878739 259.910758 
L 321.609343 260.051392 
L 322.519544 259.86388 
L 323.429745 259.86388 
L 324.339946 260.051392 
L 325.250147 259.86388 
L 326.160349 260.145149 
L 327.07055 259.676367 
L 327.980751 260.145149 
L 328.890952 259.723245 
L 329.801153 260.098271 
L 330.711354 260.332662 
L 331.621556 259.676367 
L 332.531757 260.004514 
L 333.441958 259.910758 
L 335.26236 260.051392 
L 336.172562 259.723245 
L 337.082763 260.098271 
L 338.903165 259.817001 
L 339.813366 260.613931 
L 340.723567 259.86388 
L 342.54397 260.004514 
L 343.454171 259.86388 
L 344.364372 260.192027 
L 345.274573 260.004514 
L 348.005177 259.86388 
L 349.825579 259.957636 
L 350.735781 259.910758 
L 352.556183 260.332662 
L 353.466384 259.629489 
L 354.376585 260.004514 
L 357.107189 259.770123 
L 358.01739 259.348219 
L 358.927591 260.238905 
L 359.837792 259.723245 
L 360.747994 259.06695 
L 361.658195 259.535732 
L 362.568396 259.488854 
L 363.478597 259.910758 
L 364.388798 260.004514 
L 365.298999 260.520175 
L 366.209201 259.207585 
L 367.119402 260.426418 
L 368.939804 259.676367 
L 369.850005 260.8952 
L 370.760207 259.020072 
L 371.670408 260.145149 
L 372.580609 260.567053 
L 373.49081 259.160706 
L 374.401011 260.192027 
L 376.221414 259.535732 
L 377.131615 259.910758 
L 379.862218 259.770123 
L 380.77242 260.098271 
L 381.682621 259.676367 
L 382.592822 260.098271 
L 385.323426 259.817001 
L 387.143828 260.004514 
L 388.96423 259.770123 
L 390.784633 259.957636 
L 391.694834 259.817001 
L 392.605035 260.051392 
L 393.515236 259.86388 
L 394.425437 260.051392 
L 395.335639 259.817001 
L 396.24584 260.004514 
L 397.156041 259.910758 
L 398.066242 260.004514 
L 398.976443 259.910758 
L 399.886645 260.473296 
L 400.796846 259.395097 
L 401.707047 260.754566 
L 402.617248 260.051392 
L 403.527449 259.817001 
L 404.43765 259.86388 
L 405.347852 260.051392 
L 406.258053 259.770123 
L 407.168254 260.238905 
L 408.078455 259.910758 
L 408.988656 259.957636 
L 409.898858 260.473296 
L 410.809059 259.817001 
L 411.71926 260.098271 
L 412.629461 259.395097 
L 413.539662 259.910758 
L 414.449864 259.723245 
L 415.360065 260.004514 
L 416.270266 259.58261 
L 417.180467 259.86388 
L 421.731473 259.86388 
L 422.641674 258.598168 
L 423.551875 260.801444 
L 424.462077 259.86388 
L 425.372278 260.145149 
L 426.282479 260.004514 
L 427.19268 260.426418 
L 428.102881 259.348219 
L 429.013082 259.910758 
L 430.833485 259.86388 
L 431.743686 259.629489 
L 432.653887 260.848322 
L 433.564088 259.817001 
L 434.47429 259.723245 
L 435.384491 259.86388 
L 436.294692 259.86388 
L 437.204893 258.785681 
L 438.115094 259.910758 
L 439.025296 260.051392 
L 439.935497 260.848322 
L 440.845698 259.348219 
L 442.6661 259.910758 
L 444.486503 259.910758 
L 445.396704 259.770123 
L 446.306905 260.004514 
L 447.217106 259.817001 
L 449.037509 260.004514 
L 449.94771 259.86388 
L 453.588514 259.770123 
L 454.498716 260.004514 
L 455.408917 259.957636 
L 456.319118 260.613931 
L 457.229319 259.488854 
L 458.13952 260.145149 
L 459.049722 259.488854 
L 459.959923 260.8952 
L 460.870124 259.254463 
L 461.780325 260.473296 
L 462.690526 259.395097 
L 463.600728 260.285784 
L 464.510929 259.254463 
L 466.331331 260.051392 
L 467.241532 260.004514 
L 468.151733 260.942079 
L 469.061935 258.973193 
L 469.972136 260.848322 
L 470.882337 258.645046 
L 471.792538 261.504617 
L 472.702739 259.58261 
L 473.612941 259.957636 
L 474.523142 259.488854 
L 475.433343 260.051392 
L 476.343544 259.488854 
L 477.253745 260.098271 
L 478.163946 259.488854 
L 479.074148 259.535732 
L 479.984349 260.145149 
L 480.89455 260.285784 
L 481.804751 259.348219 
L 482.714952 259.86388 
L 483.625154 260.098271 
L 486.355757 259.723245 
L 487.265958 259.535732 
L 488.17616 259.58261 
L 489.086361 259.910758 
L 489.996562 259.723245 
L 490.906763 260.051392 
L 491.816964 259.58261 
L 492.727165 260.332662 
L 493.637367 259.301341 
L 494.547568 260.192027 
L 495.457769 260.285784 
L 496.36797 259.817001 
L 497.278171 259.723245 
L 498.188373 259.301341 
L 499.098574 259.770123 
L 501.829177 259.723245 
L 503.64958 260.004514 
L 504.559781 259.86388 
L 506.380183 260.051392 
L 507.290384 259.58261 
L 508.200586 259.676367 
L 509.110787 259.957636 
L 510.020988 259.723245 
L 510.931189 260.332662 
L 511.84139 259.723245 
L 512.751592 259.535732 
L 513.661793 259.86388 
L 514.571994 259.488854 
L 515.482195 260.660809 
L 516.392396 259.723245 
L 517.302597 259.910758 
L 518.212799 259.58261 
L 519.123 259.488854 
L 520.033201 259.770123 
L 521.853603 259.770123 
L 522.763805 258.363777 
L 523.674006 259.817001 
L 524.584207 260.848322 
L 525.494408 259.254463 
L 526.404609 259.910758 
L 527.314811 260.051392 
L 528.225012 260.051392 
L 529.135213 259.629489 
L 530.045414 259.86388 
L 530.955615 260.473296 
L 532.776018 259.113828 
L 533.686219 260.567053 
L 534.59642 259.723245 
L 535.506621 259.676367 
L 536.416822 259.910758 
L 537.327024 259.770123 
L 539.147426 259.676367 
L 540.057627 259.395097 
L 541.878029 260.098271 
L 542.788231 259.770123 
L 543.698432 260.848322 
L 544.608633 259.676367 
L 688.42042 259.629489 
L 689.330622 259.910758 
L 690.240823 259.535732 
L 691.151024 259.723245 
L 692.061225 259.676367 
L 692.971426 259.817001 
L 693.881627 259.676367 
L 694.791829 258.879437 
L 695.70203 259.723245 
L 696.612231 259.301341 
L 697.522432 260.660809 
L 698.432633 260.192027 
L 699.342835 260.238905 
L 700.253036 259.395097 
L 701.163237 259.770123 
L 702.073438 259.207585 
L 702.983639 260.567053 
L 703.89384 259.723245 
L 704.804042 259.770123 
L 705.714243 260.238905 
L 706.624444 259.86388 
L 707.534645 259.723245 
L 708.444846 259.160706 
L 709.355048 260.192027 
L 710.265249 260.37954 
L 711.17545 260.332662 
L 712.085651 259.676367 
L 712.995852 259.254463 
L 713.906054 259.910758 
L 714.816255 259.254463 
L 715.726456 259.770123 
L 716.636657 261.457739 
L 717.546858 258.363777 
L 718.457059 260.37954 
L 719.367261 259.301341 
L 720.277462 260.192027 
L 721.187663 260.004514 
L 722.097864 259.301341 
L 723.008065 260.332662 
L 723.918267 259.301341 
L 724.828468 260.426418 
L 725.738669 259.770123 
L 726.64887 259.770123 
L 727.559071 259.348219 
L 728.469272 260.567053 
L 730.289675 259.817001 
L 731.199876 259.723245 
L 732.110077 260.004514 
L 733.020278 260.145149 
L 733.93048 259.58261 
L 734.840681 260.145149 
L 735.750882 259.58261 
L 736.661083 260.051392 
L 737.571284 260.145149 
L 738.481486 259.58261 
L 739.391687 260.098271 
L 740.301888 259.676367 
L 745.763095 259.676367 
L 746.673296 260.004514 
L 747.583497 259.488854 
L 748.493699 259.723245 
L 753.954906 259.723245 
L 754.865107 259.58261 
L 755.775308 260.004514 
L 756.685509 260.285784 
L 757.59571 259.676367 
L 759.416113 259.676367 
L 763.967119 259.676367 
L 764.87732 260.004514 
L 765.787521 260.098271 
L 766.697722 259.910758 
L 767.607923 259.113828 
L 768.518125 260.238905 
L 769.428326 259.58261 
L 770.338527 260.473296 
L 771.248728 259.910758 
L 773.069131 259.723245 
L 775.799734 259.817001 
L 776.709935 259.58261 
L 777.620136 259.957636 
L 778.530338 259.301341 
L 779.440539 251.941461 
L 780.35074 202.484942 
L 782.171142 203.797532 
L 783.081344 203.281872 
L 788.542551 203.094359 
L 789.452752 203.891289 
L 790.362953 203.141237 
L 791.273154 203.281872 
L 793.093557 203.141237 
L 794.003758 202.484942 
L 794.913959 203.234994 
L 796.734361 203.234994 
L 797.644563 203.234994 
L 798.554764 201.406743 
L 799.464965 205.016366 
L 800.375166 203.281872 
L 802.195568 203.094359 
L 803.10577 202.906846 
L 804.015971 203.141237 
L 804.926172 203.797532 
L 805.836373 203.141237 
L 806.746574 202.906846 
L 807.656776 203.750654 
L 808.566977 203.094359 
L 813.117983 203.094359 
L 814.028184 202.859968 
L 814.938385 203.797532 
L 815.848586 203.094359 
L 819.489391 203.188115 
L 820.399592 203.797532 
L 821.309793 202.953724 
L 822.219995 203.703776 
L 823.130196 203.094359 
L 824.040397 203.563141 
L 824.950598 202.766211 
L 825.860799 203.234994 
L 826.771001 202.484942 
L 827.681202 203.750654 
L 829.501604 203.656898 
L 830.411805 203.610019 
L 831.322006 203.750654 
L 832.232208 203.141237 
L 835.873012 202.953724 
L 836.783214 203.703776 
L 837.693415 203.141237 
L 840.424018 203.094359 
L 844.064823 203.094359 
L 844.975024 202.719333 
L 845.885225 203.610019 
L 846.795427 203.234994 
L 849.52603 203.234994 
L 850.436231 202.578699 
L 851.346433 203.234994 
L 852.256634 202.438064 
L 853.166835 203.516263 
L 854.077036 203.32875 
L 854.987237 203.610019 
L 855.897438 203.000603 
L 856.80764 205.157001 
L 857.717841 201.875525 
L 858.628042 204.078802 
L 859.538243 202.625577 
L 860.448444 203.469385 
L 861.358646 203.281872 
L 862.268847 204.735097 
L 863.179048 203.234994 
L 864.99945 203.094359 
L 869.550456 203.094359 
L 870.460657 202.906846 
L 871.370859 203.797532 
L 872.28106 203.047481 
L 875.011663 203.094359 
L 875.921865 202.906846 
L 876.832066 203.703776 
L 877.742267 203.094359 
L 878.652468 202.953724 
L 879.562669 203.750654 
L 880.47287 203.094359 
L 897.766693 203.094359 
L 898.676894 202.953724 
L 899.587095 203.750654 
L 900.497297 203.094359 
L 901.407498 202.953724 
L 902.317699 203.750654 
L 903.2279 203.094359 
L 904.138101 203.094359 
L 905.048302 202.953724 
L 905.958504 203.703776 
L 906.868705 203.047481 
L 907.778906 203.188115 
L 908.689107 202.953724 
L 909.599308 203.797532 
L 910.50951 203.047481 
L 911.419711 203.094359 
L 912.329912 202.953724 
L 913.240113 203.703776 
L 914.150314 202.906846 
L 915.060515 203.703776 
L 915.970717 202.906846 
L 916.880918 203.703776 
L 917.791119 203.094359 
L 930.533936 203.094359 
L 931.444137 202.906846 
L 932.354338 203.703776 
L 933.264539 203.750654 
L 934.17474 203.047481 
L 935.084942 203.094359 
L 935.995143 202.953724 
L 936.905344 203.563141 
L 937.815545 203.750654 
L 938.725746 203.094359 
L 939.635947 202.906846 
L 940.546149 203.610019 
L 941.45635 203.750654 
L 942.366551 203.094359 
L 944.186953 203.094359 
L 946.007356 203.32875 
L 946.917557 203.094359 
L 947.827758 203.094359 
L 948.737959 203.234994 
L 949.648161 203.094359 
L 960.570575 203.000603 
L 961.480776 202.906846 
L 962.390977 204.828853 
L 963.301178 202.438064 
L 964.211379 204.031923 
L 965.121581 203.141237 
L 966.031782 203.094359 
L 967.852184 203.281872 
L 968.762385 203.32875 
L 969.672587 203.094359 
L 970.582788 203.375628 
L 971.492989 203.234994 
L 972.40319 202.766211 
L 973.313391 203.703776 
L 975.133794 203.047481 
L 976.043995 203.32875 
L 976.954196 202.53182 
L 977.864397 203.188115 
L 978.774598 204.078802 
L 979.6848 202.391186 
L 980.595001 203.563141 
L 981.505202 202.906846 
L 982.415403 203.281872 
L 986.056208 203.094359 
L 986.966409 202.906846 
L 987.87661 203.375628 
L 989.697013 202.156795 
L 990.607214 204.219436 
L 991.517415 203.234994 
L 992.427616 203.32875 
L 994.248019 203.141237 
L 995.15822 202.250551 
L 996.068421 204.313193 
L 996.978622 203.516263 
L 997.888823 203.234994 
L 998.799025 203.422506 
L 999.709226 203.188115 
L 1000.619427 202.203673 
L 1001.529628 204.313193 
L 1003.35003 202.484942 
L 1004.260232 204.266314 
L 1005.170433 202.203673 
L 1006.080634 206.657103 
L 1006.990835 202.01616 
L 1007.901036 203.375628 
L 1008.811238 203.141237 
L 1009.721439 203.281872 
L 1010.63164 201.641134 
L 1011.541841 202.81309 
L 1012.452042 203.516263 
L 1013.362244 203.281872 
L 1014.272445 204.922609 
L 1015.182646 202.859968 
L 1016.092847 205.063244 
L 1017.003048 202.766211 
L 1017.913249 205.43827 
L 1019.733652 33.348336 
L 1020.643853 33.348336 
L 1021.554054 32.832675 
L 1022.464255 33.48897 
L 1023.374457 34.567169 
L 1024.284658 37.051715 
L 1025.194859 31.051303 
L 1026.10506 36.817324 
L 1027.015261 33.723361 
L 1027.925462 33.582727 
L 1028.835664 33.113945 
L 1031.566267 33.207701 
L 1032.476468 33.113945 
L 1033.38667 33.254579 
L 1037.027474 33.254579 
L 1037.937676 33.723361 
L 1038.847877 32.832675 
L 1039.758078 33.254579 
L 1040.668279 33.301458 
L 1041.57848 33.207701 
L 1042.488681 33.301458 
L 1043.398883 33.113945 
L 1044.309084 33.301458 
L 1047.949889 33.160823 
L 1048.86009 33.535849 
L 1049.770291 33.113945 
L 1050.680492 33.160823 
L 1051.590693 34.426535 
L 1052.500894 32.832675 
L 1054.321297 33.582727 
L 1055.231498 33.301458 
L 1057.0519 33.348336 
L 1057.962102 32.363893 
L 1059.782504 34.567169 
L 1060.692705 33.254579 
L 1061.602906 32.223259 
L 1062.513108 36.39542 
L 1063.423309 33.020188 
L 1064.33351 33.067066 
L 1065.243711 34.098387 
L 1066.153912 32.410771 
L 1067.064113 33.48897 
L 1067.974315 33.535849 
L 1068.884516 33.442092 
L 1069.794717 33.723361 
L 1070.704918 33.160823 
L 1071.615119 33.301458 
L 1072.525321 33.160823 
L 1074.345723 33.301458 
L 1076.166125 33.067066 
L 1077.076326 33.160823 
L 1077.986528 33.113945 
L 1078.896729 33.535849 
L 1079.80693 33.254579 
L 1081.627332 33.207701 
L 1082.537534 37.379862 
L 1083.447735 31.332572 
L 1084.357936 31.707598 
L 1085.268137 32.785797 
L 1086.178338 33.207701 
L 1087.08854 33.160823 
L 1087.998741 33.301458 
L 1090.729344 33.207701 
L 1091.639545 372.840382 
L 1091.639545 372.840382 
" clip-path="url(#p0aaa8afe3a)" style="fill: none; stroke: #1f77b4; stroke-width: 1.5; stroke-linecap: square"/>
   </g>
   <g id="line2d_26">
    <path d="M 191.450573 372.840382 
L 192.360774 372.840382 
L 193.270975 311.429918 
L 194.181177 204.406949 
L 195.091378 202.81309 
L 196.001579 204.219436 
L 196.91178 203.797532 
L 197.821981 202.953724 
L 198.732183 204.547584 
L 199.642384 203.375628 
L 200.552585 203.141237 
L 206.013792 203.141237 
L 206.923993 203.84441 
L 207.834194 202.672455 
L 208.744396 203.141237 
L 211.474999 203.094359 
L 214.205603 203.141237 
L 216.936206 203.094359 
L 236.960632 203.094359 
L 237.870834 203.32875 
L 238.781035 203.094359 
L 241.511638 203.141237 
L 274.278881 203.094359 
L 275.189082 202.344308 
L 276.099283 203.375628 
L 277.919686 203.141237 
L 278.829887 203.375628 
L 279.740088 203.891289 
L 280.650289 203.234994 
L 281.56049 203.094359 
L 282.470692 203.094359 
L 283.380893 226.064685 
L 284.291094 259.723245 
L 302.495118 259.723245 
L 303.405319 259.86388 
L 304.31552 259.723245 
L 327.07055 259.723245 
L 327.980751 259.58261 
L 328.890952 260.145149 
L 329.801153 259.723245 
L 332.531757 259.676367 
L 356.196988 259.58261 
L 357.107189 260.098271 
L 358.01739 259.676367 
L 367.119402 259.723245 
L 368.029603 259.817001 
L 368.939804 259.535732 
L 369.850005 259.58261 
L 370.760207 260.145149 
L 371.670408 259.723245 
L 374.401011 259.676367 
L 376.221414 259.676367 
L 427.19268 259.676367 
L 428.102881 259.535732 
L 429.013082 260.098271 
L 429.923284 259.723245 
L 432.653887 259.676367 
L 433.564088 259.770123 
L 436.294692 259.723245 
L 469.061935 259.676367 
L 469.972136 259.58261 
L 470.882337 260.098271 
L 471.792538 259.676367 
L 474.523142 259.723245 
L 501.829177 259.723245 
L 502.739378 259.58261 
L 503.64958 260.145149 
L 504.559781 259.676367 
L 518.212799 259.676367 
L 519.123 259.535732 
L 520.033201 260.145149 
L 520.943402 259.629489 
L 521.853603 260.098271 
L 522.763805 259.723245 
L 547.339237 259.676367 
L 548.249438 259.58261 
L 549.159639 260.145149 
L 550.06984 259.676367 
L 564.633059 259.58261 
L 565.54326 260.145149 
L 566.453461 259.723245 
L 600.130905 259.723245 
L 601.041107 259.160706 
L 602.861509 260.051392 
L 603.77171 259.770123 
L 604.681911 259.676367 
L 605.592112 259.957636 
L 607.412515 259.629489 
L 608.322716 259.910758 
L 609.232917 259.723245 
L 610.143118 259.723245 
L 611.05332 260.285784 
L 611.963521 259.770123 
L 613.783923 259.770123 
L 614.694124 259.957636 
L 615.604325 259.58261 
L 616.514527 259.723245 
L 619.24513 259.676367 
L 635.628752 259.58261 
L 636.538953 260.192027 
L 637.449154 259.676367 
L 669.306195 259.723245 
L 670.216397 259.86388 
L 671.126598 259.723245 
L 685.689817 259.629489 
L 686.600018 259.441976 
L 688.42042 259.957636 
L 690.240823 259.535732 
L 691.151024 260.473296 
L 692.061225 259.770123 
L 694.791829 259.723245 
L 699.342835 259.676367 
L 700.253036 259.254463 
L 701.163237 260.238905 
L 702.073438 259.817001 
L 702.983639 259.207585 
L 703.89384 260.285784 
L 704.804042 259.817001 
L 706.624444 259.676367 
L 712.995852 259.723245 
L 713.906054 259.86388 
L 715.726456 259.676367 
L 716.636657 259.160706 
L 717.546858 259.817001 
L 718.457059 259.910758 
L 719.367261 260.145149 
L 720.277462 259.770123 
L 729.379474 259.723245 
L 730.289675 259.629489 
L 731.199876 260.051392 
L 732.110077 259.723245 
L 733.020278 259.723245 
L 733.93048 259.301341 
L 734.840681 259.723245 
L 737.571284 259.86388 
L 739.391687 259.723245 
L 740.301888 259.86388 
L 741.212089 259.817001 
L 742.12229 260.192027 
L 743.032491 259.770123 
L 743.942693 259.629489 
L 744.852894 260.098271 
L 745.763095 259.723245 
L 747.583497 259.676367 
L 749.4039 259.676367 
L 752.134503 259.58261 
L 753.044704 260.238905 
L 753.954906 259.723245 
L 778.530338 259.723245 
L 779.440539 222.455063 
L 780.35074 203.094359 
L 792.183355 203.141237 
L 793.093557 202.953724 
L 794.913959 203.141237 
L 796.734361 203.094359 
L 799.464965 203.141237 
L 802.195568 203.094359 
L 804.015971 203.094359 
L 805.836373 203.188115 
L 806.746574 202.484942 
L 807.656776 202.438064 
L 808.566977 204.64134 
L 809.477178 202.250551 
L 810.387379 204.453827 
L 811.29758 203.188115 
L 812.207782 203.234994 
L 813.117983 203.422506 
L 814.028184 203.094359 
L 815.848586 203.281872 
L 819.489391 203.32875 
L 820.399592 203.047481 
L 821.309793 203.985045 
L 822.219995 203.234994 
L 823.130196 203.32875 
L 824.040397 203.188115 
L 824.950598 203.234994 
L 825.860799 202.391186 
L 826.771001 203.469385 
L 827.681202 203.188115 
L 828.591403 203.094359 
L 829.501604 203.141237 
L 830.411805 203.469385 
L 831.322006 203.281872 
L 834.05261 203.094359 
L 834.962811 203.281872 
L 837.693415 203.188115 
L 838.603616 203.32875 
L 839.513817 203.188115 
L 842.244421 203.32875 
L 845.885225 202.859968 
L 846.795427 203.985045 
L 847.705628 203.234994 
L 848.615829 203.891289 
L 849.52603 203.188115 
L 850.436231 203.234994 
L 851.346433 202.672455 
L 852.256634 203.094359 
L 853.166835 203.375628 
L 854.077036 203.188115 
L 855.897438 203.234994 
L 856.80764 203.047481 
L 858.628042 203.610019 
L 859.538243 202.953724 
L 860.448444 203.188115 
L 861.358646 203.234994 
L 862.268847 203.141237 
L 866.819853 203.32875 
L 867.730054 203.141237 
L 868.640255 203.188115 
L 869.550456 203.094359 
L 870.460657 203.281872 
L 872.28106 203.234994 
L 873.191261 202.81309 
L 874.101462 203.891289 
L 875.011663 203.047481 
L 875.921865 203.563141 
L 876.832066 203.094359 
L 877.742267 202.906846 
L 878.652468 203.656898 
L 879.562669 203.281872 
L 881.383072 203.141237 
L 882.293273 203.234994 
L 883.203474 202.766211 
L 884.113675 204.031923 
L 885.023876 203.188115 
L 885.934078 203.32875 
L 886.844279 203.047481 
L 887.75448 203.281872 
L 888.664681 203.32875 
L 889.574882 202.953724 
L 890.485083 203.516263 
L 891.395285 203.094359 
L 892.305486 203.32875 
L 894.125888 203.047481 
L 895.036089 203.516263 
L 895.946291 203.094359 
L 896.856492 203.32875 
L 897.766693 203.375628 
L 898.676894 203.047481 
L 899.587095 203.32875 
L 901.407498 203.281872 
L 902.317699 203.000603 
L 903.2279 203.422506 
L 904.138101 203.188115 
L 905.048302 203.32875 
L 905.958504 203.047481 
L 906.868705 203.375628 
L 907.778906 203.281872 
L 908.689107 203.000603 
L 909.599308 203.281872 
L 910.50951 203.32875 
L 911.419711 203.141237 
L 912.329912 203.375628 
L 915.060515 203.141237 
L 915.970717 203.32875 
L 916.880918 203.281872 
L 917.791119 203.094359 
L 919.611521 203.32875 
L 920.521723 203.094359 
L 921.431924 203.32875 
L 922.342125 203.141237 
L 923.252326 203.32875 
L 924.162527 203.047481 
L 925.072729 203.281872 
L 927.803332 203.32875 
L 928.713533 203.188115 
L 929.623734 203.281872 
L 931.444137 203.141237 
L 935.084942 203.281872 
L 935.995143 203.094359 
L 937.815545 203.281872 
L 938.725746 203.188115 
L 939.635947 202.766211 
L 940.546149 203.891289 
L 941.45635 203.188115 
L 943.276752 203.32875 
L 944.186953 203.188115 
L 945.097155 203.188115 
L 946.007356 203.32875 
L 946.917557 203.094359 
L 947.827758 203.422506 
L 948.737959 203.141237 
L 949.648161 203.938167 
L 950.558362 203.375628 
L 951.468563 204.078802 
L 952.378764 203.563141 
L 954.199166 203.094359 
L 955.109368 204.12568 
L 956.92977 203.516263 
L 957.839971 203.610019 
L 958.750172 202.156795 
L 959.660374 204.406949 
L 960.570575 202.953724 
L 961.480776 203.047481 
L 962.390977 203.610019 
L 963.301178 204.688218 
L 964.211379 203.188115 
L 965.121581 203.563141 
L 966.031782 203.750654 
L 968.762385 203.610019 
L 969.672587 204.172558 
L 970.582788 204.313193 
L 971.492989 202.766211 
L 972.40319 203.563141 
L 974.223593 203.375628 
L 975.133794 203.797532 
L 976.043995 203.422506 
L 976.954196 204.594462 
L 977.864397 203.047481 
L 978.774598 203.703776 
L 979.6848 204.078802 
L 980.595001 203.891289 
L 981.505202 203.32875 
L 982.415403 203.656898 
L 983.325604 203.84441 
L 984.235806 203.422506 
L 986.056208 203.469385 
L 986.966409 204.360071 
L 987.87661 203.000603 
L 988.786812 205.625783 
L 989.697013 203.094359 
L 990.607214 203.84441 
L 991.517415 203.32875 
L 995.15822 203.422506 
L 996.068421 203.047481 
L 997.888823 203.000603 
L 998.799025 203.281872 
L 999.709226 201.734891 
L 1000.619427 203.610019 
L 1001.529628 203.141237 
L 1002.439829 203.750654 
L 1003.35003 203.703776 
L 1004.260232 204.360071 
L 1005.170433 202.625577 
L 1006.080634 203.563141 
L 1006.990835 204.969488 
L 1007.901036 203.84441 
L 1008.811238 203.375628 
L 1011.541841 203.32875 
L 1016.092847 203.32875 
L 1017.003048 372.840382 
L 1017.003048 372.840382 
" clip-path="url(#p0aaa8afe3a)" style="fill: none; stroke: #ff7f0e; stroke-width: 1.5; stroke-linecap: square"/>
   </g>
   <g id="line2d_27">
    <path d="M 282.470692 372.840382 
L 283.380893 372.840382 
L 284.291094 347.291754 
L 285.201295 259.957636 
L 287.021698 259.86388 
L 288.8421 260.145149 
L 290.662502 259.817001 
L 291.572703 260.145149 
L 292.482905 259.86388 
L 293.393106 260.051392 
L 297.033911 259.86388 
L 297.944112 260.145149 
L 298.854313 259.817001 
L 299.764514 259.910758 
L 300.674715 259.770123 
L 301.584917 260.192027 
L 302.495118 259.817001 
L 303.405319 259.770123 
L 304.31552 260.098271 
L 305.225721 259.86388 
L 306.135922 259.957636 
L 307.046124 259.86388 
L 307.956325 260.004514 
L 308.866526 259.910758 
L 309.776727 260.004514 
L 313.417532 259.770123 
L 314.327733 260.051392 
L 315.237934 259.86388 
L 318.878739 260.098271 
L 320.699141 259.817001 
L 321.609343 260.004514 
L 322.519544 259.86388 
L 323.429745 260.004514 
L 324.339946 259.817001 
L 325.250147 260.051392 
L 326.160349 259.817001 
L 327.980751 260.051392 
L 328.890952 259.817001 
L 329.801153 260.145149 
L 330.711354 259.910758 
L 331.621556 260.051392 
L 333.441958 259.910758 
L 334.352159 260.145149 
L 335.26236 259.957636 
L 336.172562 260.520175 
L 337.082763 259.254463 
L 337.992964 259.86388 
L 338.903165 260.051392 
L 339.813366 259.910758 
L 341.633769 260.004514 
L 342.54397 260.098271 
L 343.454171 259.86388 
L 346.184775 260.051392 
L 347.094976 259.86388 
L 348.005177 259.957636 
L 351.645982 259.86388 
L 352.556183 260.051392 
L 354.376585 259.86388 
L 356.196988 259.957636 
L 357.107189 259.86388 
L 358.01739 260.004514 
L 358.927591 259.723245 
L 359.837792 260.051392 
L 360.747994 259.817001 
L 361.658195 260.051392 
L 362.568396 259.86388 
L 365.298999 260.004514 
L 366.209201 259.910758 
L 369.850005 260.004514 
L 370.760207 259.86388 
L 372.580609 259.910758 
L 373.49081 259.86388 
L 374.401011 260.004514 
L 377.131615 259.817001 
L 378.041816 259.957636 
L 383.503023 259.86388 
L 384.413224 260.098271 
L 385.323426 259.86388 
L 386.233627 259.957636 
L 387.143828 259.817001 
L 388.054029 259.910758 
L 388.96423 259.676367 
L 389.874432 260.285784 
L 390.784633 260.051392 
L 391.694834 259.676367 
L 392.605035 260.145149 
L 393.515236 259.817001 
L 394.425437 260.004514 
L 395.335639 260.004514 
L 396.24584 259.817001 
L 398.066242 259.957636 
L 399.886645 259.910758 
L 401.707047 260.051392 
L 403.527449 259.86388 
L 404.43765 260.098271 
L 405.347852 259.817001 
L 406.258053 259.957636 
L 408.988656 259.910758 
L 409.898858 260.098271 
L 412.629461 259.723245 
L 413.539662 260.145149 
L 414.449864 259.86388 
L 416.270266 260.004514 
L 417.180467 259.817001 
L 418.090668 260.004514 
L 419.000869 259.86388 
L 419.911071 260.004514 
L 420.821272 259.817001 
L 421.731473 260.004514 
L 422.641674 260.004514 
L 423.551875 259.817001 
L 424.462077 259.957636 
L 426.282479 259.770123 
L 428.102881 260.145149 
L 429.013082 259.910758 
L 429.923284 259.957636 
L 431.743686 259.86388 
L 434.47429 259.910758 
L 435.384491 259.676367 
L 436.294692 260.098271 
L 437.204893 260.051392 
L 438.115094 259.86388 
L 439.935497 260.004514 
L 440.845698 259.770123 
L 441.755899 259.957636 
L 442.6661 259.86388 
L 444.486503 260.004514 
L 446.306905 259.817001 
L 447.217106 260.004514 
L 449.037509 259.86388 
L 450.857911 260.004514 
L 451.768112 261.082713 
L 452.678313 258.645046 
L 453.588514 260.004514 
L 455.408917 259.86388 
L 456.319118 259.957636 
L 457.229319 259.910758 
L 459.049722 260.004514 
L 459.959923 259.86388 
L 461.780325 260.004514 
L 462.690526 259.817001 
L 463.600728 260.051392 
L 464.510929 259.957636 
L 465.42113 260.004514 
L 467.241532 259.910758 
L 468.151733 260.098271 
L 469.061935 259.770123 
L 469.972136 260.051392 
L 470.882337 260.098271 
L 471.792538 259.86388 
L 475.433343 260.004514 
L 476.343544 259.86388 
L 479.074148 259.957636 
L 479.984349 259.86388 
L 480.89455 260.004514 
L 482.714952 259.957636 
L 483.625154 260.004514 
L 484.535355 259.817001 
L 485.445556 260.051392 
L 487.265958 259.957636 
L 492.727165 259.910758 
L 493.637367 259.817001 
L 494.547568 260.004514 
L 495.457769 259.86388 
L 496.36797 260.098271 
L 497.278171 259.817001 
L 498.188373 260.004514 
L 499.098574 259.910758 
L 500.918976 259.957636 
L 501.829177 259.86388 
L 502.739378 259.957636 
L 503.64958 259.86388 
L 505.469982 260.098271 
L 506.380183 259.817001 
L 507.290384 260.098271 
L 508.200586 259.86388 
L 509.110787 260.004514 
L 510.931189 259.910758 
L 512.751592 259.910758 
L 514.571994 260.004514 
L 515.482195 259.910758 
L 517.302597 259.957636 
L 519.123 259.770123 
L 520.943402 260.332662 
L 521.853603 260.004514 
L 522.763805 260.004514 
L 523.674006 259.770123 
L 524.584207 260.051392 
L 525.494408 259.910758 
L 546.429035 259.910758 
L 547.339237 260.051392 
L 549.159639 259.86388 
L 551.890243 259.957636 
L 552.800444 259.817001 
L 554.620846 260.004514 
L 558.261651 259.86388 
L 560.082053 260.004514 
L 560.992254 259.86388 
L 564.633059 260.004514 
L 566.453461 259.86388 
L 567.363663 260.004514 
L 570.094266 259.86388 
L 571.914669 260.004514 
L 572.82487 259.910758 
L 575.555473 259.957636 
L 604.681911 259.86388 
L 605.592112 261.17647 
L 606.502314 259.910758 
L 608.322716 259.86388 
L 611.05332 259.910758 
L 613.783923 259.86388 
L 624.706337 259.86388 
L 625.616539 259.348219 
L 626.52674 259.160706 
L 627.436941 260.145149 
L 628.347142 259.676367 
L 629.257343 260.145149 
L 630.167544 259.86388 
L 631.987947 259.957636 
L 635.628752 259.957636 
L 636.538953 259.817001 
L 637.449154 260.145149 
L 638.359355 260.613931 
L 639.269556 260.801444 
L 640.179757 260.801444 
L 641.089959 260.37954 
L 642.00016 260.285784 
L 642.910361 259.957636 
L 643.820562 260.098271 
L 644.730763 259.86388 
L 645.640965 260.051392 
L 647.461367 260.145149 
L 648.371568 259.723245 
L 649.281769 260.098271 
L 650.191971 259.535732 
L 651.102172 260.098271 
L 652.012373 260.192027 
L 652.922574 259.910758 
L 654.742976 259.817001 
L 655.653178 261.129591 
L 656.563379 258.738802 
L 657.47358 259.910758 
L 658.383781 259.957636 
L 659.293982 259.86388 
L 660.204184 260.051392 
L 661.114385 259.86388 
L 662.934787 260.004514 
L 663.844988 259.86388 
L 664.755189 260.004514 
L 665.665391 259.723245 
L 666.575592 260.051392 
L 667.485793 259.723245 
L 668.395994 260.192027 
L 669.306195 259.86388 
L 671.126598 260.004514 
L 672.036799 259.676367 
L 672.947 260.238905 
L 673.857201 259.910758 
L 674.767403 260.004514 
L 675.677604 259.910758 
L 676.587805 260.051392 
L 677.498006 259.676367 
L 678.408207 260.567053 
L 679.318408 259.817001 
L 680.22861 259.86388 
L 681.138811 259.770123 
L 682.049012 260.660809 
L 682.959213 259.113828 
L 683.869414 259.58261 
L 684.779616 259.86388 
L 685.689817 259.723245 
L 687.510219 260.285784 
L 688.42042 259.395097 
L 690.240823 260.520175 
L 691.151024 259.301341 
L 692.061225 259.86388 
L 692.971426 260.004514 
L 693.881627 260.660809 
L 694.791829 260.051392 
L 695.70203 259.86388 
L 696.612231 260.520175 
L 697.522432 259.348219 
L 698.432633 260.004514 
L 699.342835 259.86388 
L 700.253036 259.957636 
L 701.163237 261.129591 
L 702.073438 258.785681 
L 702.983639 259.86388 
L 704.804042 259.910758 
L 705.714243 260.37954 
L 706.624444 259.395097 
L 707.534645 259.910758 
L 708.444846 259.910758 
L 709.355048 260.051392 
L 710.265249 259.676367 
L 711.17545 260.238905 
L 712.085651 259.86388 
L 712.995852 259.817001 
L 713.906054 261.17647 
L 714.816255 258.691924 
L 715.726456 260.332662 
L 716.636657 259.441976 
L 717.546858 259.86388 
L 718.457059 260.004514 
L 719.367261 259.817001 
L 720.277462 260.285784 
L 721.187663 259.488854 
L 722.097864 260.145149 
L 723.008065 259.770123 
L 724.828468 259.770123 
L 725.738669 260.848322 
L 726.64887 259.395097 
L 727.559071 260.051392 
L 728.469272 260.332662 
L 729.379474 259.535732 
L 730.289675 259.676367 
L 731.199876 260.051392 
L 732.110077 259.86388 
L 733.020278 260.473296 
L 733.93048 259.957636 
L 734.840681 259.254463 
L 735.750882 260.285784 
L 736.661083 259.535732 
L 737.571284 259.817001 
L 738.481486 260.613931 
L 739.391687 259.770123 
L 740.301888 259.348219 
L 741.212089 260.004514 
L 742.12229 259.910758 
L 743.032491 260.192027 
L 743.942693 259.957636 
L 744.852894 260.145149 
L 745.763095 259.86388 
L 748.493699 259.86388 
L 749.4039 259.488854 
L 750.314101 259.957636 
L 751.224302 260.004514 
L 752.134503 259.817001 
L 753.044704 261.129591 
L 753.954906 258.879437 
L 754.865107 260.37954 
L 755.775308 258.926315 
L 756.685509 260.660809 
L 757.59571 259.817001 
L 758.505912 259.441976 
L 759.416113 260.37954 
L 760.326314 259.58261 
L 761.236515 260.285784 
L 762.146716 259.441976 
L 763.056918 260.332662 
L 763.967119 259.910758 
L 765.787521 259.86388 
L 767.607923 260.426418 
L 768.518125 259.441976 
L 769.428326 261.035835 
L 770.338527 259.113828 
L 772.158929 259.86388 
L 773.069131 260.004514 
L 773.979332 259.86388 
L 774.889533 260.473296 
L 775.799734 260.567053 
L 776.709935 258.738802 
L 777.620136 259.910758 
L 778.530338 372.840382 
L 778.530338 372.840382 
" clip-path="url(#p0aaa8afe3a)" style="fill: none; stroke: #2ca02c; stroke-width: 1.5; stroke-linecap: square"/>
   </g>
   <g id="line2d_28">
    <path d="M 100.430455 372.840382 
L 101.340656 372.840382 
L 102.250857 247.863059 
L 103.161058 34.192157 
L 104.071259 33.301464 
L 104.98146 34.051522 
L 105.891662 34.004643 
L 106.801863 33.817129 
L 107.712064 33.957764 
L 109.532466 35.410973 
L 110.442668 33.817129 
L 111.352869 33.4421 
L 112.26307 33.301464 
L 113.173271 33.301464 
L 114.083472 33.535857 
L 115.903875 33.160829 
L 116.814076 33.301464 
L 117.724277 32.270136 
L 118.634478 34.660916 
L 119.544679 33.4421 
L 120.454881 33.348343 
L 121.365082 32.7858 
L 122.275283 33.207707 
L 127.73649 33.207707 
L 128.646691 33.348343 
L 129.556892 33.207707 
L 132.287496 33.301464 
L 133.197697 33.020193 
L 134.107898 34.707794 
L 135.0181 33.348343 
L 136.838502 33.160829 
L 137.748703 33.817129 
L 138.658904 32.692043 
L 139.569106 33.207707 
L 140.479307 33.301464 
L 143.20991 33.254586 
L 144.120111 32.973314 
L 145.030313 28.848027 
L 145.940514 37.801753 
L 146.850715 33.067071 
L 147.760916 34.473401 
L 148.671117 33.676493 
L 149.581319 35.035944 
L 150.49152 33.957764 
L 151.401721 33.488979 
L 152.311922 34.84843 
L 153.222123 33.207707 
L 154.132324 34.285887 
L 155.042526 34.52028 
L 155.952727 33.77025 
L 156.862928 34.192157 
L 157.773129 34.051522 
L 158.68333 34.473401 
L 159.593532 33.910886 
L 160.503733 33.957764 
L 161.413934 36.254787 
L 162.324135 33.629614 
L 163.234336 33.301464 
L 164.144538 33.817129 
L 165.054739 33.535857 
L 165.96494 33.488979 
L 166.875141 30.207506 
L 167.785342 36.442301 
L 168.695543 33.488979 
L 169.605745 35.317216 
L 170.515946 33.817129 
L 171.426147 33.395221 
L 172.336348 33.207707 
L 174.156751 33.301464 
L 175.066952 33.207707 
L 176.887354 33.301464 
L 179.617958 33.254586 
L 181.43836 33.910886 
L 182.348561 33.488979 
L 183.258762 33.254586 
L 184.168964 33.817129 
L 185.079165 33.301464 
L 185.989366 33.957764 
L 186.899567 33.301464 
L 187.809768 29.832477 
L 188.71997 33.629614 
L 189.630171 34.614037 
L 190.540372 33.488979 
L 191.450573 33.817129 
L 192.360774 34.285887 
L 193.270975 30.8169 
L 194.181177 34.473429 
L 195.091378 34.004616 
L 196.001579 35.551609 
L 196.91178 34.0984 
L 197.821981 33.582736 
L 198.732183 34.84843 
L 199.642384 33.301464 
L 200.552585 33.488979 
L 201.462786 33.817129 
L 202.372987 33.582736 
L 203.283188 33.910858 
L 204.19339 33.4421 
L 205.103591 34.614037 
L 206.013792 32.738921 
L 206.923993 36.301666 
L 207.834194 31.4732 
L 208.744396 33.77025 
L 209.654597 35.317216 
L 210.564798 34.754673 
L 211.474999 33.4421 
L 212.3852 33.676493 
L 213.295402 33.676493 
L 214.205603 34.098373 
L 215.115804 33.676493 
L 216.026005 33.582736 
L 216.936206 32.738921 
L 217.846407 33.160829 
L 218.756609 33.77025 
L 219.66681 33.629614 
L 220.577011 33.629614 
L 221.487212 33.77025 
L 222.397413 33.676493 
L 223.307615 33.77025 
L 224.217816 33.535857 
L 225.128017 34.473401 
L 226.038218 34.239009 
L 226.948419 33.535857 
L 227.858621 33.348343 
L 228.768822 33.582736 
L 229.679023 32.738921 
L 230.589224 33.957737 
L 231.499425 33.77025 
L 232.409626 34.332766 
L 233.319828 33.488979 
L 236.960632 33.348343 
L 237.870834 33.582736 
L 238.781035 33.348343 
L 239.691236 33.4421 
L 240.601437 33.348343 
L 242.421839 33.4421 
L 243.332041 33.160829 
L 244.242242 33.957737 
L 245.152443 33.301464 
L 246.972845 33.395221 
L 255.164656 33.348343 
L 256.985058 33.676493 
L 257.89526 33.348343 
L 258.805461 33.676493 
L 259.715662 33.676493 
L 260.625863 31.660714 
L 261.536064 34.52028 
L 262.446266 34.004616 
L 264.266668 33.488979 
L 265.176869 33.4421 
L 266.08707 33.535857 
L 266.997271 33.395221 
L 267.907473 33.723371 
L 268.817674 33.160829 
L 269.727875 33.582736 
L 270.638076 33.817129 
L 271.548277 33.629614 
L 272.458479 35.223459 
L 273.36868 33.629614 
L 274.278881 33.582736 
L 275.189082 32.926436 
L 276.099283 33.910886 
L 277.009485 33.629614 
L 277.919686 34.051494 
L 278.829887 33.77025 
L 279.740088 34.801551 
L 280.650289 33.817129 
L 281.56049 33.676493 
L 282.470692 33.817101 
L 283.380893 61.522147 
L 284.291094 111.963111 
L 285.201295 33.817129 
L 286.111496 34.567186 
L 287.021698 33.067071 
L 287.931899 34.707794 
L 289.752301 33.864007 
L 290.662502 33.676493 
L 291.572703 33.770223 
L 293.393106 33.629587 
L 294.303307 32.973314 
L 295.213508 33.957764 
L 296.123709 33.723371 
L 297.033911 34.004643 
L 297.944112 34.051494 
L 299.764514 33.77025 
L 300.674715 33.817129 
L 301.584917 34.145251 
L 302.495118 34.145279 
L 303.405319 33.582736 
L 304.31552 34.239009 
L 305.225721 33.676493 
L 306.135922 34.004643 
L 307.046124 33.676493 
L 307.956325 34.098373 
L 308.866526 34.004643 
L 309.776727 33.770223 
L 311.59713 34.051522 
L 312.507331 33.77025 
L 313.417532 33.723371 
L 314.327733 34.051494 
L 316.148135 33.676493 
L 317.058337 34.004643 
L 317.968538 33.910886 
L 318.878739 34.004616 
L 320.699141 33.77025 
L 321.609343 34.098373 
L 322.519544 33.77025 
L 323.429745 33.910858 
L 326.160349 34.004643 
L 327.07055 33.629614 
L 327.980751 34.098373 
L 328.890952 34.004643 
L 329.801153 34.285887 
L 330.711354 34.239036 
L 331.621556 33.770223 
L 332.531757 34.004616 
L 333.441958 33.817129 
L 334.352159 34.145251 
L 335.26236 34.004643 
L 336.172562 34.239009 
L 337.082763 33.348343 
L 337.992964 33.817129 
L 338.903165 33.86398 
L 339.813366 34.520307 
L 340.723567 33.77025 
L 342.54397 34.098373 
L 343.454171 33.723371 
L 344.364372 34.145279 
L 345.274573 33.957764 
L 346.184775 34.051494 
L 347.094976 33.864007 
L 348.005177 33.817129 
L 349.825579 33.910886 
L 350.735781 33.864007 
L 351.645982 34.004643 
L 352.556183 34.379644 
L 353.466384 33.582736 
L 354.376585 33.864007 
L 355.286786 33.864007 
L 356.196988 33.723371 
L 357.107189 34.051522 
L 358.01739 33.348343 
L 358.927591 33.957764 
L 359.837792 33.770223 
L 360.747994 32.879557 
L 361.658195 33.582708 
L 362.568396 33.348343 
L 363.478597 33.817129 
L 364.388798 33.957764 
L 365.298999 34.567159 
L 366.209201 33.160829 
L 367.119402 34.42655 
L 368.029603 34.145279 
L 368.939804 33.488979 
L 369.850005 34.801551 
L 370.760207 33.348343 
L 371.670408 34.0984 
L 372.580609 34.473429 
L 373.49081 33.067071 
L 374.401011 34.19213 
L 375.311213 33.910886 
L 376.221414 33.4421 
L 377.131615 33.723371 
L 378.952017 33.864007 
L 379.862218 33.817101 
L 380.77242 34.051522 
L 381.682621 33.535857 
L 382.592822 34.004643 
L 383.503023 33.864007 
L 384.413224 34.004616 
L 385.323426 33.676493 
L 386.233627 33.957764 
L 387.143828 33.817129 
L 388.054029 33.864007 
L 388.96423 33.488979 
L 389.874432 34.239009 
L 390.784633 34.051494 
L 391.694834 33.535857 
L 392.605035 34.239009 
L 393.515236 33.723371 
L 394.425437 34.098373 
L 395.335639 33.86398 
L 398.976443 33.817129 
L 399.886645 34.379672 
L 400.796846 33.348343 
L 401.707047 34.801551 
L 402.617248 33.957764 
L 403.527449 33.676493 
L 404.43765 33.957737 
L 405.347852 33.910886 
L 406.258053 33.723371 
L 407.168254 34.239036 
L 408.078455 33.817129 
L 408.988656 33.910886 
L 409.898858 34.614037 
L 410.809059 33.817129 
L 411.71926 33.957764 
L 412.629461 33.160829 
L 413.539662 34.098373 
L 414.449864 33.629614 
L 415.360065 34.004643 
L 416.270266 33.582708 
L 418.090668 33.86398 
L 419.000869 33.676493 
L 419.911071 33.86398 
L 420.821272 33.676493 
L 421.731473 33.86398 
L 422.641674 32.598286 
L 423.551875 34.614064 
L 424.462077 33.817129 
L 425.372278 34.051522 
L 426.282479 33.77025 
L 427.19268 34.379672 
L 428.102881 33.348343 
L 429.013082 34.239036 
L 429.923284 33.864007 
L 431.743686 33.535857 
L 432.653887 34.7547 
L 433.564088 33.864007 
L 435.384491 33.582736 
L 436.294692 34.004616 
L 437.204893 32.879557 
L 438.115094 33.817129 
L 439.025296 34.004643 
L 439.935497 34.84843 
L 440.845698 33.11395 
L 441.755899 33.629614 
L 443.576301 33.910886 
L 444.486503 33.910858 
L 445.396704 33.676493 
L 446.306905 33.817129 
L 450.857911 33.86398 
L 451.768112 35.035944 
L 452.678313 32.598286 
L 453.588514 33.770223 
L 454.498716 33.910886 
L 455.408917 33.864007 
L 456.319118 34.614064 
L 457.229319 33.4421 
L 458.13952 34.19213 
L 459.049722 33.535857 
L 459.959923 34.801579 
L 460.870124 33.160829 
L 461.780325 34.473401 
L 462.690526 33.207707 
L 463.600728 34.332766 
L 464.510929 33.207707 
L 465.42113 33.676466 
L 466.331331 33.957764 
L 467.241532 33.910886 
L 468.151733 35.035944 
L 469.061935 32.738921 
L 469.972136 34.801551 
L 470.882337 33.160801 
L 471.792538 35.364094 
L 472.702739 33.535857 
L 473.612941 34.004616 
L 474.523142 33.582736 
L 475.433343 34.098373 
L 476.343544 33.395221 
L 477.253745 34.051522 
L 478.163946 33.535857 
L 479.074148 33.488979 
L 479.984349 34.051522 
L 480.89455 34.332766 
L 481.804751 33.301464 
L 482.714952 33.864007 
L 483.625154 34.145251 
L 484.535355 33.864007 
L 485.445556 33.957737 
L 487.265958 33.488979 
L 488.17616 33.535857 
L 489.086361 33.817129 
L 489.996562 33.582736 
L 490.906763 34.004643 
L 491.816964 33.488979 
L 492.727165 34.239036 
L 493.637367 33.160829 
L 494.547568 34.239009 
L 495.457769 34.192157 
L 496.36797 33.957737 
L 497.278171 33.582736 
L 498.188373 33.348343 
L 499.098574 33.723371 
L 500.918976 33.77025 
L 501.829177 33.629614 
L 502.739378 33.77025 
L 503.64958 34.332793 
L 504.559781 33.86398 
L 505.469982 34.098373 
L 508.200586 33.535857 
L 509.110787 34.004616 
L 510.020988 33.723344 
L 510.931189 34.239036 
L 511.84139 33.582736 
L 512.751592 33.4421 
L 513.661793 33.86398 
L 514.571994 33.488979 
L 515.482195 34.567186 
L 516.392396 33.676493 
L 517.302597 33.864007 
L 519.123 33.11395 
L 520.033201 34.285887 
L 520.943402 34.051494 
L 521.853603 34.19213 
L 522.763805 32.410771 
L 524.584207 34.942187 
L 525.494408 33.160829 
L 526.404609 33.817129 
L 527.314811 34.004643 
L 528.225012 34.004643 
L 529.135213 33.582736 
L 530.045414 33.676493 
L 530.955615 34.473401 
L 531.865816 33.817101 
L 532.776018 32.926436 
L 533.686219 34.614037 
L 534.59642 33.629614 
L 535.506621 33.629614 
L 536.416822 33.817129 
L 537.327024 33.723371 
L 538.237225 33.817101 
L 539.147426 33.676493 
L 540.057627 33.348343 
L 541.878029 34.051522 
L 542.788231 33.676493 
L 543.698432 34.895309 
L 544.608633 33.676493 
L 545.518834 33.535857 
L 547.339237 33.723344 
L 548.249438 33.488979 
L 549.159639 33.957764 
L 550.06984 33.535857 
L 550.980041 33.676466 
L 551.890243 33.629614 
L 552.800444 33.4421 
L 553.710645 33.629614 
L 555.531047 33.629614 
L 556.441248 33.488979 
L 557.35145 33.582736 
L 558.261651 33.535857 
L 560.082053 33.676466 
L 560.992254 33.535857 
L 561.902456 33.582736 
L 562.812657 33.770223 
L 564.633059 33.53583 
L 565.54326 34.051522 
L 566.453461 33.535857 
L 567.363663 33.676466 
L 568.273864 33.582736 
L 569.184065 33.629614 
L 570.094266 33.535857 
L 571.914669 33.629587 
L 572.82487 33.535857 
L 575.555473 33.629614 
L 578.286077 33.582736 
L 600.130905 33.629614 
L 601.041107 32.973314 
L 601.951308 33.629587 
L 602.861509 34.004616 
L 603.77171 33.582736 
L 604.681911 33.535857 
L 605.592112 35.082823 
L 606.502314 33.629614 
L 607.412515 33.4421 
L 608.322716 33.77025 
L 610.143118 33.582736 
L 611.05332 34.192157 
L 611.963521 33.629614 
L 612.873722 33.676493 
L 613.783923 33.582736 
L 614.694124 33.77025 
L 615.604325 33.395221 
L 616.514527 33.582736 
L 619.24513 33.535857 
L 624.706337 33.488979 
L 625.616539 32.973314 
L 626.52674 32.832679 
L 627.436941 33.770223 
L 628.347142 33.348343 
L 629.257343 33.86398 
L 630.167544 33.535857 
L 632.898148 33.676493 
L 633.808349 33.535857 
L 634.71855 33.629587 
L 635.628752 33.535857 
L 636.538953 33.957764 
L 637.449154 33.770223 
L 638.359355 34.239009 
L 639.269556 34.426523 
L 640.179757 34.426523 
L 641.089959 34.004616 
L 642.00016 33.910858 
L 642.910361 33.582736 
L 643.820562 33.723344 
L 644.730763 33.488979 
L 645.640965 33.676466 
L 647.461367 33.817101 
L 648.371568 33.395221 
L 649.281769 33.723344 
L 650.191971 33.207707 
L 651.102172 33.770223 
L 652.012373 33.86398 
L 652.922574 33.582736 
L 654.742976 33.488979 
L 655.653178 34.801551 
L 656.563379 32.363893 
L 657.47358 33.535857 
L 660.204184 33.676466 
L 661.114385 33.488979 
L 662.024586 33.676493 
L 662.934787 33.676466 
L 663.844988 33.535857 
L 664.755189 33.676466 
L 665.665391 33.395221 
L 666.575592 33.723344 
L 667.485793 33.395221 
L 668.395994 33.86398 
L 669.306195 33.535857 
L 670.216397 33.77025 
L 671.126598 33.676466 
L 672.036799 33.395221 
L 672.947 33.957737 
L 673.857201 33.535857 
L 674.767403 33.723344 
L 675.677604 33.582736 
L 676.587805 33.629587 
L 677.498006 33.301464 
L 678.408207 34.239009 
L 679.318408 33.4421 
L 680.22861 33.488979 
L 681.138811 33.395221 
L 682.049012 34.285887 
L 682.959213 32.738921 
L 683.869414 33.207707 
L 684.779616 33.488979 
L 685.689817 33.301464 
L 686.600018 33.442073 
L 687.510219 33.910858 
L 688.42042 33.301464 
L 689.330622 33.957764 
L 691.151024 33.817129 
L 692.061225 33.629614 
L 692.971426 33.86398 
L 693.881627 34.379644 
L 694.791829 32.973314 
L 695.70203 33.629614 
L 698.432633 34.239009 
L 699.342835 34.0984 
L 700.253036 32.926436 
L 701.163237 35.457851 
L 702.073438 32.1295 
L 702.983639 33.957764 
L 703.89384 34.239036 
L 704.804042 33.817129 
L 705.714243 34.660916 
L 706.624444 33.254586 
L 707.534645 33.629614 
L 708.444846 33.11395 
L 709.355048 34.285887 
L 710.265249 34.0984 
L 711.17545 34.614037 
L 712.085651 33.582736 
L 712.995852 33.11395 
L 713.906054 35.270337 
L 714.816255 31.988864 
L 715.726456 34.098373 
L 716.636657 34.379644 
L 717.546858 32.363893 
L 718.457059 34.614037 
L 719.367261 33.582736 
L 720.277462 34.567159 
L 721.187663 33.582736 
L 722.097864 33.535857 
L 723.008065 34.239036 
L 723.918267 33.160829 
L 724.828468 34.239036 
L 725.738669 34.660916 
L 726.64887 33.207707 
L 727.559071 33.4421 
L 728.469272 34.942187 
L 729.379474 33.817129 
L 730.289675 33.4421 
L 731.199876 34.145251 
L 732.110077 33.910886 
L 733.020278 34.660916 
L 733.93048 33.160829 
L 734.840681 33.4421 
L 735.750882 33.957737 
L 736.661083 33.723371 
L 737.571284 34.145279 
L 738.481486 34.285887 
L 739.391687 33.910886 
L 740.301888 33.207707 
L 741.212089 33.817101 
L 742.12229 34.0984 
L 743.032491 33.957737 
L 743.942693 33.582736 
L 744.852894 34.239009 
L 745.763095 33.582736 
L 746.673296 33.864007 
L 747.583497 33.395221 
L 748.493699 33.629614 
L 749.4039 33.207707 
L 750.314101 33.629614 
L 751.224302 33.723344 
L 752.134503 33.4421 
L 753.044704 35.410973 
L 753.954906 32.645164 
L 754.865107 34.004616 
L 755.775308 32.973314 
L 756.685509 34.989066 
L 757.59571 33.488979 
L 758.505912 33.207707 
L 759.416113 34.098373 
L 760.326314 33.254586 
L 761.236515 33.957737 
L 762.146716 33.11395 
L 763.056918 34.004616 
L 763.967119 33.582736 
L 764.87732 33.910886 
L 766.697722 34.004616 
L 767.607923 33.535857 
L 768.518125 33.676493 
L 769.428326 34.614037 
L 770.338527 33.582736 
L 771.248728 33.395221 
L 773.069131 33.770223 
L 773.979332 33.629614 
L 774.889533 34.285887 
L 775.799734 34.426523 
L 776.709935 32.363893 
L 777.620136 33.910886 
L 778.530338 146.184211 
L 779.440539 101.556122 
L 780.35074 32.738921 
L 781.260941 33.348343 
L 782.171142 34.098373 
L 783.081344 33.582736 
L 785.811947 33.348343 
L 787.63235 33.348343 
L 788.542551 33.348343 
L 789.452752 34.145251 
L 790.362953 33.395221 
L 791.273154 33.535857 
L 792.183355 33.535857 
L 793.093557 33.254586 
L 794.003758 32.738921 
L 794.913959 33.535857 
L 795.82416 33.4421 
L 797.644563 33.535857 
L 798.554764 31.660714 
L 799.464965 35.317216 
L 800.375166 33.535857 
L 802.195568 33.348343 
L 803.10577 33.207707 
L 804.015971 33.395221 
L 804.926172 34.051494 
L 805.836373 33.488979 
L 806.746574 32.551407 
L 807.656776 33.348343 
L 808.566977 34.895309 
L 809.477178 32.504529 
L 810.387379 34.801551 
L 811.29758 33.4421 
L 812.207782 33.488979 
L 813.117983 33.676493 
L 814.028184 33.11395 
L 814.938385 34.19213 
L 815.848586 33.535857 
L 818.57919 33.582736 
L 819.489391 33.676493 
L 820.399592 34.004616 
L 822.219995 34.098373 
L 823.130196 33.582736 
L 824.040397 33.910858 
L 824.950598 33.160829 
L 825.860799 32.7858 
L 826.771001 33.11395 
L 827.681202 34.098373 
L 828.591403 33.910858 
L 829.501604 33.957737 
L 830.411805 34.239009 
L 831.322006 34.19213 
L 832.232208 33.535857 
L 833.142409 33.535857 
L 834.05261 33.395221 
L 834.962811 33.535857 
L 835.873012 33.348343 
L 836.783214 34.145251 
L 837.693415 33.488979 
L 838.603616 33.582736 
L 840.424018 33.488979 
L 844.064823 33.395221 
L 844.975024 33.020193 
L 845.885225 33.629587 
L 846.795427 34.379672 
L 847.705628 33.629614 
L 848.615829 34.285914 
L 850.436231 32.973314 
L 851.346433 33.067071 
L 852.256634 32.692043 
L 853.166835 34.051522 
L 854.077036 33.676493 
L 854.987237 34.004616 
L 855.897438 33.395221 
L 856.80764 35.364094 
L 857.717841 32.363893 
L 858.628042 34.84843 
L 859.538243 32.738921 
L 860.448444 33.817129 
L 861.358646 33.676493 
L 862.268847 35.035944 
L 863.179048 33.582736 
L 864.089249 33.629614 
L 864.99945 33.488979 
L 866.819853 33.582736 
L 867.730054 33.395221 
L 868.640255 33.4421 
L 870.460657 33.348343 
L 871.370859 34.19213 
L 872.28106 33.4421 
L 873.191261 33.067071 
L 874.101462 34.0984 
L 875.011663 33.301464 
L 876.832066 33.957737 
L 877.742267 33.160829 
L 878.652468 33.77025 
L 879.562669 34.19213 
L 880.47287 33.4421 
L 881.383072 33.395221 
L 882.293273 33.488979 
L 883.203474 32.973314 
L 884.113675 34.285914 
L 885.023876 33.4421 
L 885.934078 33.582736 
L 886.844279 33.301464 
L 887.75448 33.535857 
L 888.664681 33.582736 
L 889.574882 33.207707 
L 890.485083 33.723371 
L 891.395285 33.4421 
L 892.305486 33.582736 
L 894.125888 33.301464 
L 895.036089 33.77025 
L 895.946291 33.395221 
L 896.856492 33.582736 
L 897.766693 33.629614 
L 898.676894 33.160829 
L 899.587095 34.239009 
L 900.497297 33.535857 
L 901.407498 33.395221 
L 902.317699 33.910858 
L 904.138101 33.4421 
L 905.048302 33.4421 
L 905.958504 33.910858 
L 906.868705 33.582736 
L 907.778906 33.629614 
L 908.689107 33.11395 
L 909.599308 34.239009 
L 910.50951 33.535857 
L 911.419711 33.395221 
L 912.329912 33.488979 
L 913.240113 34.19213 
L 914.150314 33.254586 
L 915.060515 34.004616 
L 915.970717 33.395221 
L 916.880918 34.145251 
L 917.791119 33.348343 
L 919.611521 33.582736 
L 920.521723 33.348343 
L 921.431924 33.582736 
L 922.342125 33.395221 
L 923.252326 33.535857 
L 924.162527 33.301464 
L 925.98293 33.582736 
L 928.713533 33.395221 
L 929.623734 33.535857 
L 930.533936 33.4421 
L 931.444137 33.207707 
L 932.354338 34.051494 
L 933.264539 34.19213 
L 934.17474 33.395221 
L 935.084942 33.535857 
L 935.995143 33.207707 
L 936.905344 33.957737 
L 937.815545 34.19213 
L 939.635947 32.832679 
L 940.546149 34.660916 
L 942.366551 33.535857 
L 943.276752 33.582736 
L 944.186953 33.4421 
L 946.007356 33.817129 
L 946.917557 33.348343 
L 947.827758 33.676493 
L 948.737959 33.535857 
L 949.648161 34.192157 
L 950.558362 33.629614 
L 951.468563 34.332793 
L 952.378764 33.817129 
L 954.199166 33.348343 
L 955.109368 34.42655 
L 956.92977 33.77025 
L 957.839971 33.864007 
L 958.750172 32.410771 
L 959.660374 34.614064 
L 960.570575 33.11395 
L 961.480776 33.11395 
L 962.390977 35.598487 
L 963.301178 34.285887 
L 964.211379 34.379644 
L 965.121581 33.864007 
L 966.941983 34.0984 
L 968.762385 34.0984 
L 970.582788 34.848457 
L 971.492989 33.160829 
L 972.40319 33.488979 
L 973.313391 34.332766 
L 974.223593 33.864007 
L 975.133794 34.004643 
L 976.043995 33.910886 
L 976.954196 34.285887 
L 977.864397 33.395221 
L 978.774598 34.942187 
L 979.6848 33.629614 
L 980.595001 34.614037 
L 981.505202 33.395221 
L 982.415403 34.0984 
L 983.325604 34.239036 
L 984.235806 33.817129 
L 986.056208 33.723371 
L 986.966409 34.42655 
L 987.87661 33.535857 
L 988.786812 35.50473 
L 989.697013 32.410771 
L 990.607214 35.223459 
L 991.517415 33.723371 
L 992.427616 33.817129 
L 994.248019 33.629614 
L 995.15822 32.832679 
L 996.068421 34.52028 
L 996.978622 33.676493 
L 997.888823 33.395221 
L 998.799025 33.864007 
L 999.709226 32.082621 
L 1000.619427 32.973314 
L 1001.529628 34.614037 
L 1002.439829 34.332793 
L 1003.35003 33.348343 
L 1004.260232 35.786001 
L 1005.170433 31.988864 
L 1006.080634 37.379873 
L 1006.990835 34.145251 
L 1007.901036 34.379672 
L 1008.811238 33.676493 
L 1009.721439 33.77025 
L 1010.63164 32.1295 
L 1011.541841 33.301464 
L 1012.452042 34.004643 
L 1013.362244 33.77025 
L 1014.272445 35.410973 
L 1015.182646 33.395221 
L 1016.092847 35.551609 
L 1017.003048 202.766213 
L 1017.913249 205.438264 
L 1019.733652 33.348343 
L 1020.643853 33.348343 
L 1021.554054 32.832679 
L 1022.464255 33.488979 
L 1023.374457 34.567159 
L 1024.284658 37.051723 
L 1025.194859 31.051293 
L 1026.10506 36.81733 
L 1027.015261 33.723371 
L 1027.925462 33.582736 
L 1028.835664 33.11395 
L 1031.566267 33.207707 
L 1032.476468 33.11395 
L 1033.38667 33.254586 
L 1037.027474 33.254586 
L 1037.937676 33.723371 
L 1038.847877 32.832679 
L 1039.758078 33.254586 
L 1040.668279 33.301464 
L 1041.57848 33.207707 
L 1042.488681 33.301464 
L 1043.398883 33.11395 
L 1044.309084 33.301464 
L 1047.949889 33.160829 
L 1048.86009 33.535857 
L 1049.770291 33.11395 
L 1050.680492 33.160829 
L 1051.590693 34.426523 
L 1052.500894 32.832679 
L 1054.321297 33.582736 
L 1055.231498 33.301464 
L 1057.0519 33.348343 
L 1057.962102 32.363893 
L 1059.782504 34.567159 
L 1060.692705 33.254586 
L 1061.602906 32.223257 
L 1062.513108 36.395423 
L 1063.423309 33.020193 
L 1064.33351 33.067071 
L 1065.243711 34.0984 
L 1066.153912 32.410771 
L 1067.064113 33.488979 
L 1067.974315 33.535857 
L 1068.884516 33.4421 
L 1069.794717 33.723371 
L 1070.704918 33.160829 
L 1071.615119 33.301464 
L 1072.525321 33.160829 
L 1074.345723 33.301464 
L 1076.166125 33.067071 
L 1077.076326 33.160829 
L 1077.986528 33.11395 
L 1078.896729 33.535857 
L 1079.80693 33.254586 
L 1081.627332 33.207707 
L 1082.537534 37.379873 
L 1083.447735 31.332564 
L 1084.357936 31.707593 
L 1085.268137 32.7858 
L 1086.178338 33.207707 
L 1087.08854 33.160829 
L 1087.998741 33.301464 
L 1090.729344 33.207707 
L 1091.639545 372.840382 
L 1091.639545 372.840382 
" clip-path="url(#p0aaa8afe3a)" style="fill: none; stroke-dasharray: 3.7,1.6; stroke-dashoffset: 0; stroke: #000000; stroke-opacity: 0.6"/>
   </g>
   <g id="patch_3">
    <path d="M 50.87 390.04 
L 50.87 11.648409 
" style="fill: none; stroke: #000000; stroke-width: 0.8; stroke-linejoin: miter; stroke-linecap: square"/>
   </g>
   <g id="patch_4">
    <path d="M 1141.2 390.04 
L 1141.2 11.648409 
" style="fill: none; stroke: #000000; stroke-width: 0.8; stroke-linejoin: miter; stroke-linecap: square"/>
   </g>
   <g id="patch_5">
    <path d="M 50.87 390.04 
L 1141.2 390.04 
" style="fill: none; stroke: #000000; stroke-width: 0.8; stroke-linejoin: miter; stroke-linecap: square"/>
   </g>
   <g id="patch_6">
    <path d="M 50.87 11.648409 
L 1141.2 11.648409 
" style="fill: none; stroke: #000000; stroke-width: 0.8; stroke-linejoin: miter; stroke-linecap: square"/>
   </g>
   <g id="legend_1">
    <g id="patch_7">
     <path d="M 555.945938 385.04 
L 636.124063 385.04 
Q 638.124063 385.04 638.124063 383.04 
L 638.124063 325.049375 
Q 638.124063 323.049375 636.124063 323.049375 
L 555.945938 323.049375 
Q 553.945938 323.049375 553.945938 325.049375 
L 553.945938 383.04 
Q 553.945938 385.04 555.945938 385.04 
z
" style="fill: #ffffff; opacity: 0.8; stroke: #cccccc; stroke-linejoin: miter"/>
    </g>
    <g id="line2d_29">
     <path d="M 557.945938 331.147812 
L 567.945938 331.147812 
L 577.945938 331.147812 
" style="fill: none; stroke: #1f77b4; stroke-width: 1.5; stroke-linecap: square"/>
    </g>
    <g id="text_15">
     <!-- task1 -->
     <g transform="translate(585.945938 334.647812) scale(0.1 -0.1)">
      <defs>
       <path id="DejaVuSans-6b" d="M 581 4863 
L 1159 4863 
L 1159 1991 
L 2875 3500 
L 3609 3500 
L 1753 1863 
L 3688 0 
L 2938 0 
L 1159 1709 
L 1159 0 
L 581 0 
L 581 4863 
z
" transform="scale(0.015625)"/>
      </defs>
      <use xlink:href="#DejaVuSans-74"/>
      <use xlink:href="#DejaVuSans-61" transform="translate(39.208984 0)"/>
      <use xlink:href="#DejaVuSans-73" transform="translate(100.488281 0)"/>
      <use xlink:href="#DejaVuSans-6b" transform="translate(152.587891 0)"/>
      <use xlink:href="#DejaVuSans-31" transform="translate(210.498047 0)"/>
     </g>
    </g>
    <g id="line2d_30">
     <path d="M 557.945938 345.825938 
L 567.945938 345.825938 
L 577.945938 345.825938 
" style="fill: none; stroke: #ff7f0e; stroke-width: 1.5; stroke-linecap: square"/>
    </g>
    <g id="text_16">
     <!-- task2 -->
     <g transform="translate(585.945938 349.325938) scale(0.1 -0.1)">
      <use xlink:href="#DejaVuSans-74"/>
      <use xlink:href="#DejaVuSans-61" transform="translate(39.208984 0)"/>
      <use xlink:href="#DejaVuSans-73" transform="translate(100.488281 0)"/>
      <use xlink:href="#DejaVuSans-6b" transform="translate(152.587891 0)"/>
      <use xlink:href="#DejaVuSans-32" transform="translate(210.498047 0)"/>
     </g>
    </g>
    <g id="line2d_31">
     <path d="M 557.945938 360.504062 
L 567.945938 360.504062 
L 577.945938 360.504062 
" style="fill: none; stroke: #2ca02c; stroke-width: 1.5; stroke-linecap: square"/>
    </g>
    <g id="text_17">
     <!-- task3 -->
     <g transform="translate(585.945938 364.004062) scale(0.1 -0.1)">
      <defs>
       <path id="DejaVuSans-33" d="M 2597 2516 
Q 3050 2419 3304 2112 
Q 3559 1806 3559 1356 
Q 3559 666 3084 287 
Q 2609 -91 1734 -91 
Q 1441 -91 1130 -33 
Q 819 25 488 141 
L 488 750 
Q 750 597 1062 519 
Q 1375 441 1716 441 
Q 2309 441 2620 675 
Q 2931 909 2931 1356 
Q 2931 1769 2642 2001 
Q 2353 2234 1838 2234 
L 1294 2234 
L 1294 2753 
L 1863 2753 
Q 2328 2753 2575 2939 
Q 2822 3125 2822 3475 
Q 2822 3834 2567 4026 
Q 2313 4219 1838 4219 
Q 1578 4219 1281 4162 
Q 984 4106 628 3988 
L 628 4550 
Q 988 4650 1302 4700 
Q 1616 4750 1894 4750 
Q 2613 4750 3031 4423 
Q 3450 4097 3450 3541 
Q 3450 3153 3228 2886 
Q 3006 2619 2597 2516 
z
" transform="scale(0.015625)"/>
      </defs>
      <use xlink:href="#DejaVuSans-74"/>
      <use xlink:href="#DejaVuSans-61" transform="translate(39.208984 0)"/>
      <use xlink:href="#DejaVuSans-73" transform="translate(100.488281 0)"/>
      <use xlink:href="#DejaVuSans-6b" transform="translate(152.587891 0)"/>
      <use xlink:href="#DejaVuSans-33" transform="translate(210.498047 0)"/>
     </g>
    </g>
    <g id="line2d_32">
     <path d="M 557.945938 375.182187 
L 567.945938 375.182187 
L 577.945938 375.182187 
" style="fill: none; stroke-dasharray: 3.7,1.6; stroke-dashoffset: 0; stroke: #000000; stroke-opacity: 0.6"/>
    </g>
    <g id="text_18">
     <!-- total_rate -->
     <g transform="translate(585.945938 378.682187) scale(0.1 -0.1)">
      <defs>
       <path id="DejaVuSans-6f" d="M 1959 3097 
Q 1497 3097 1228 2736 
Q 959 2375 959 1747 
Q 959 1119 1226 758 
Q 1494 397 1959 397 
Q 2419 397 2687 759 
Q 2956 1122 2956 1747 
Q 2956 2369 2687 2733 
Q 2419 3097 1959 3097 
z
M 1959 3584 
Q 2709 3584 3137 3096 
Q 3566 2609 3566 1747 
Q 3566 888 3137 398 
Q 2709 -91 1959 -91 
Q 1206 -91 779 398 
Q 353 888 353 1747 
Q 353 2609 779 3096 
Q 1206 3584 1959 3584 
z
" transform="scale(0.015625)"/>
       <path id="DejaVuSans-6c" d="M 603 4863 
L 1178 4863 
L 1178 0 
L 603 0 
L 603 4863 
z
" transform="scale(0.015625)"/>
       <path id="DejaVuSans-5f" d="M 3263 -1063 
L 3263 -1509 
L -63 -1509 
L -63 -1063 
L 3263 -1063 
z
" transform="scale(0.015625)"/>
      </defs>
      <use xlink:href="#DejaVuSans-74"/>
      <use xlink:href="#DejaVuSans-6f" transform="translate(39.208984 0)"/>
      <use xlink:href="#DejaVuSans-74" transform="translate(100.390625 0)"/>
      <use xlink:href="#DejaVuSans-61" transform="translate(139.599609 0)"/>
      <use xlink:href="#DejaVuSans-6c" transform="translate(200.878906 0)"/>
      <use xlink:href="#DejaVuSans-5f" transform="translate(228.662109 0)"/>
      <use xlink:href="#DejaVuSans-72" transform="translate(278.662109 0)"/>
      <use xlink:href="#DejaVuSans-61" transform="translate(319.775391 0)"/>
      <use xlink:href="#DejaVuSans-74" transform="translate(381.054688 0)"/>
      <use xlink:href="#DejaVuSans-65" transform="translate(420.263672 0)"/>
     </g>
    </g>
   </g>
  </g>
 </g>
 <defs>
  <clipPath id="p0aaa8afe3a">
   <rect x="50.87" y="11.648409" width="1090.33" height="378.391591"/>
  </clipPath>
 </defs>
</svg>
